{"glyphs":{"0":{"ha":931,"x_min":-1,"x_max":908,"o":"m 908 582 q 767 168 908 353 q 372 -37 610 -37 q 90 85 192 -37 q -1 374 -1 197 q 35 614 -1 464 q 163 929 83 808 q 410 1088 267 1088 q 779 946 646 1088 q 908 582 908 808 m 707 589 q 685 700 707 614 q 613 888 654 815 q 486 986 556 986 q 347 818 415 986 q 290 626 290 679 q 332 392 290 519 q 486 215 389 215 l 561 215 q 665 385 615 215 q 707 589 707 524 z "},"1":{"ha":681,"x_min":-10,"x_max":667,"o":"m 665 1040 q 667 1028 667 1038 q 611 608 667 979 q 525 -7 544 172 q 485 -24 522 -8 q 447 -35 460 -35 q 369 28 404 -35 q 340 111 340 78 q 397 250 340 133 q 465 432 457 374 q 492 665 479 549 q 539 910 508 814 l 539 932 q 225 539 426 835 q 114 521 172 521 q 40 518 131 521 q -8 524 -3 515 l -8 583 q 186 813 -10 614 q 419 1029 376 1004 q 508 1063 449 1046 q 581 1076 561 1076 q 665 1040 608 1076 z "},"2":{"ha":917,"x_min":1,"x_max":914,"o":"m 914 181 q 896 140 906 161 q 865 111 883 115 q 208 -42 606 39 q 138 -74 192 -44 q 68 -104 85 -104 q 1 -49 1 -104 q 117 221 1 39 q 364 557 203 354 q 592 836 478 697 q 510 865 557 861 q 431 865 513 865 q 300 839 367 865 q 204 792 258 824 q 151 765 160 765 q 90 876 90 765 q 486 1022 90 1022 q 547 1022 513 1022 q 586 1021 581 1021 q 792 915 792 1021 q 664 688 792 851 q 413 392 601 607 q 235 171 263 221 q 250 168 242 168 q 319 189 271 168 q 398 215 374 211 q 619 219 422 219 q 889 207 796 219 l 914 181 z "},"3":{"ha":628,"x_min":21,"x_max":625,"o":"m 625 953 q 547 772 625 904 q 468 638 468 639 q 506 534 468 629 q 543 426 543 439 q 410 160 543 325 q 174 -12 274 -12 q 56 21 140 -12 q 46 42 46 22 q 125 142 46 54 q 272 317 226 254 q 351 497 351 428 q 335 558 351 506 q 319 621 319 611 q 398 781 319 672 q 476 919 476 889 q 464 975 476 950 q 422 1007 449 1007 q 324 965 382 1007 q 254 901 272 931 q 226 828 251 897 q 128 808 163 808 q 21 835 54 808 l 21 872 q 96 953 49 904 q 306 1044 135 985 q 476 1099 461 1099 q 579 1044 529 1099 q 625 953 625 996 z "},"4":{"ha":675,"x_min":-14,"x_max":674,"o":"m 674 596 q 588 533 658 557 q 483 499 536 515 q 404 328 438 472 q 365 168 371 185 q 257 0 331 69 l 204 0 l 182 24 l 300 475 q 200 488 275 483 q 85 504 121 493 q -1 563 24 521 q -14 651 -14 583 q -3 735 -14 697 q 92 938 11 779 q 201 1111 179 1111 q 263 1064 238 1111 q 281 1013 281 1029 q 206 821 281 1000 q 132 629 132 642 q 192 581 132 581 q 275 600 224 581 q 336 636 326 619 q 371 781 347 658 q 418 974 396 914 q 506 1072 454 1072 q 575 1040 542 1072 q 576 1006 576 1024 q 539 807 576 929 q 476 617 507 713 q 517 611 488 610 q 650 619 583 615 l 674 596 z "},"5":{"ha":821,"x_min":8,"x_max":818,"o":"m 818 228 q 750 65 818 114 q 624 33 739 58 q 446 6 497 6 q 228 108 347 6 q 31 318 164 165 q 8 421 8 344 q 29 542 8 457 q 253 428 153 489 q 244 401 253 419 q 235 368 235 382 q 282 254 235 322 q 349 189 326 194 q 408 182 381 182 q 578 424 578 182 q 490 644 578 574 q 433 661 475 657 q 361 668 397 664 q 269 685 290 679 q 189 725 218 699 q 139 858 154 756 q 129 972 129 919 q 163 1033 129 999 q 199 1065 186 1058 q 333 1104 256 1099 q 542 1117 518 1117 l 600 1117 q 619 933 606 1049 q 554 940 590 940 q 472 935 526 940 q 392 929 418 929 q 347 926 374 928 q 328 913 328 924 q 343 856 328 896 q 385 786 363 810 q 490 744 408 763 q 608 708 582 724 q 747 494 675 668 q 818 228 818 328 z "},"6":{"ha":743,"x_min":6,"x_max":739,"o":"m 739 453 q 663 124 739 247 q 417 -14 578 -14 q 97 51 181 -14 q 6 339 6 125 q 51 606 6 449 q 210 936 108 810 q 518 1096 339 1096 q 611 1068 554 1096 q 543 994 601 1033 q 446 929 451 933 q 335 797 390 882 q 257 639 279 713 q 418 638 338 639 q 632 597 554 631 q 739 453 739 550 m 486 421 q 428 528 486 522 q 317 429 336 472 q 310 339 310 411 q 393 150 310 200 q 486 421 486 332 z "},"7":{"ha":1022,"x_min":0,"x_max":1018,"o":"m 1013 1076 q 822 528 1018 931 q 926 499 857 518 q 864 425 894 461 q 761 376 821 382 q 607 188 746 375 q 421 0 468 0 q 374 13 381 0 q 369 58 374 13 l 624 382 q 503 438 596 397 q 579 526 518 506 q 678 542 593 532 q 747 749 717 625 q 797 960 772 854 q 763 965 793 965 q 478 929 688 965 q 240 876 275 893 q 118 861 189 851 q 36 879 56 869 q 0 933 0 894 q 38 1029 0 979 q 99 1075 74 1075 q 126 1067 110 1075 q 153 1060 142 1060 q 194 1065 164 1060 q 239 1075 231 1074 q 564 1104 350 1089 q 775 1117 742 1117 q 1013 1076 972 1117 z "},"8":{"ha":740,"x_min":-7,"x_max":742,"o":"m 742 219 q 671 46 742 111 q 515 -14 607 -14 q 176 46 318 -14 q -7 269 -7 122 q 197 582 -7 443 q 115 692 147 629 q 83 797 83 754 q 128 1004 83 933 q 333 1097 188 1097 q 531 1040 432 1097 q 651 865 651 972 q 596 738 651 815 q 481 626 540 661 q 626 506 532 590 q 710 369 678 449 q 742 219 742 290 m 458 854 q 401 950 438 950 q 336 922 376 950 q 288 849 288 889 q 317 769 288 818 q 374 713 346 721 q 458 854 458 785 m 458 275 q 304 497 458 375 q 207 389 233 432 q 175 264 175 335 q 197 169 175 210 q 276 122 225 122 q 388 150 338 122 q 458 275 458 192 z "},"9":{"ha":751,"x_min":3,"x_max":738,"o":"m 735 746 q 715 653 735 715 q 683 554 699 604 q 667 385 675 469 q 601 86 643 199 q 457 -74 544 -74 q 410 -66 442 -74 q 356 -58 379 -58 l 356 81 q 436 610 356 79 q 288 651 407 635 q 97 692 146 674 q 3 800 3 726 q 201 989 3 919 q 436 1038 339 1038 q 585 1006 536 1038 q 468 944 565 972 q 303 897 319 903 q 219 807 219 863 q 299 746 219 746 q 338 749 315 746 q 361 753 361 753 q 497 799 475 753 q 511 883 504 840 q 626 929 528 929 q 738 807 738 929 q 736 774 738 794 q 735 746 735 753 z "}," ":{"ha":658,"x_min":0,"x_max":0,"o":""},"!":{"ha":464,"x_min":44,"x_max":479,"o":"m 479 1060 q 422 788 479 922 q 254 426 378 683 q 185 244 176 268 q 160 224 165 224 q 96 256 111 224 q 85 325 85 275 q 135 568 85 418 q 246 819 182 708 q 286 938 257 840 q 333 1078 317 1042 q 360 1097 339 1089 q 393 1106 381 1106 q 479 1060 479 1106 m 147 154 q 100 178 121 178 q 54 107 63 178 q 96 19 44 29 q 158 42 131 22 q 185 90 185 63 q 147 154 185 122 z "},"\"":{"ha":303,"x_min":29,"x_max":275,"o":"m 178 835 q 175 886 176 853 q 175 1056 165 1014 q 178 1085 176 1069 q 189 1101 181 1101 q 198 1099 193 1101 q 235 1085 203 1096 q 263 1061 254 1078 q 267 954 275 1040 q 246 851 261 908 q 200 772 225 772 q 178 835 178 772 m 47 792 l 39 888 q 39 1056 29 1014 q 42 1085 40 1069 q 53 1101 44 1101 q 63 1099 57 1101 q 106 1075 85 1086 q 140 1042 132 1058 q 144 935 153 1021 q 92 749 128 765 q 81 746 86 746 q 47 792 58 746 z "},"#":{"ha":969,"x_min":4,"x_max":978,"o":"m 561 557 q 438 579 504 567 q 383 464 413 525 q 510 442 443 454 q 561 557 532 496 m 901 557 q 700 539 811 535 q 640 415 671 472 q 922 364 885 364 q 947 369 939 364 q 972 350 958 363 q 978 319 978 331 q 960 301 978 303 q 926 301 943 301 q 844 292 908 300 q 760 283 793 283 q 590 296 681 283 q 532 119 572 229 q 507 100 528 108 q 472 92 486 92 q 432 90 425 92 q 428 111 428 92 q 460 317 428 207 q 325 342 417 328 q 233 114 225 138 q 208 93 214 93 q 164 110 164 93 q 169 133 164 114 q 174 167 174 153 q 204 347 174 239 q 117 357 149 351 q 92 378 106 360 q 76 408 79 396 q 65 447 65 453 q 85 457 65 453 q 247 476 156 475 q 304 604 274 543 q 92 636 136 636 q 61 631 69 636 q 14 665 15 656 q 4 710 4 701 q 15 721 4 719 q 51 726 33 724 q 181 739 101 739 q 358 726 261 739 q 422 921 379 799 q 449 940 428 932 q 482 949 469 949 q 522 950 531 949 q 528 929 528 950 q 489 706 528 824 q 596 681 547 694 q 615 676 604 678 q 701 910 710 883 q 746 947 738 947 q 800 935 800 947 q 749 668 800 822 q 869 657 832 665 q 894 638 881 656 q 910 607 907 619 q 921 568 921 561 q 901 557 921 563 z "},"$":{"ha":775,"x_min":0,"x_max":768,"o":"m 310 619 q 350 744 331 694 q 193 638 204 721 q 310 619 215 633 m 397 443 l 353 285 l 426 285 q 453 282 428 285 q 496 279 478 279 q 604 329 576 279 l 604 351 q 397 443 544 428 m 510 1114 q 514 956 517 1053 q 668 883 668 954 q 615 796 668 825 q 490 763 575 774 l 442 596 q 768 324 768 526 q 579 138 768 213 q 296 71 453 89 q 293 47 292 50 q 271 24 285 36 q 249 22 258 22 q 225 38 225 22 q 226 53 225 42 q 229 71 228 64 q 71 113 132 86 l 71 157 q 85 224 71 185 q 138 285 106 276 l 239 285 q 268 449 250 363 q 82 472 132 453 q 0 599 0 504 q 133 783 0 682 q 379 925 243 869 q 406 1093 393 1054 q 429 1116 410 1106 q 461 1128 449 1126 q 488 1133 474 1131 q 500 1135 497 1135 q 510 1114 507 1135 z "},"%":{"ha":796,"x_min":4,"x_max":797,"o":"m 349 899 q 281 781 349 822 q 158 747 226 747 q 26 850 26 747 q 73 971 26 917 q 178 1025 119 1025 q 292 994 243 1025 q 349 899 349 960 m 242 894 q 189 950 242 950 q 146 908 164 950 q 133 858 133 876 q 174 815 133 815 q 222 844 201 815 q 242 894 242 869 m 789 1036 q 718 1036 758 1049 q 296 564 507 800 q 65 213 128 368 q 32 157 49 185 q 4 76 4 108 q 40 26 4 42 q 50 24 46 24 q 65 34 57 24 q 81 46 74 44 q 325 383 199 238 q 583 663 454 522 q 783 983 731 831 q 789 1003 781 988 q 797 1025 797 1019 q 789 1036 797 1032 m 740 158 q 593 65 707 65 q 508 81 549 65 q 413 183 413 115 q 419 222 413 201 q 486 308 439 274 q 583 342 533 342 q 622 335 604 342 q 707 281 672 317 q 747 194 747 240 q 740 158 747 176 m 636 190 q 640 213 640 201 q 628 248 640 232 q 597 264 615 264 q 547 232 575 264 q 522 194 528 208 q 526 154 514 171 q 563 138 538 138 q 607 155 585 138 q 636 190 629 172 z "},"&":{"ha":447,"x_min":-8,"x_max":447,"o":"m 447 876 q 418 967 447 913 q 349 1038 386 1028 q 286 878 328 982 q 206 851 254 871 q 111 740 146 806 q 83 649 83 688 q 120 574 83 603 q 194 518 157 546 q -8 265 -8 389 q 35 151 -8 204 q 161 50 74 106 q 165 -72 158 7 l 251 -72 q 293 24 279 -47 q 315 126 313 119 q 219 176 267 151 q 143 260 143 222 q 224 399 143 306 q 340 504 299 486 q 356 553 356 544 q 296 626 356 603 q 204 690 222 654 q 288 757 222 733 q 394 794 340 776 q 447 876 447 822 z "},"'":{"ha":183,"x_min":96,"x_max":206,"o":"m 108 849 q 106 900 107 867 q 106 1069 96 1028 q 109 1099 107 1083 q 119 1115 111 1115 q 128 1113 124 1115 q 165 1099 133 1110 q 193 1075 185 1092 q 197 968 206 1054 q 176 865 192 922 q 131 786 156 786 q 108 849 108 786 z "},"(":{"ha":332,"x_min":0,"x_max":346,"o":"m 346 1111 q 301 1025 331 1064 q 158 715 213 903 q 107 389 107 542 q 128 210 107 290 q 167 107 143 153 q 188 68 188 67 q 166 28 188 49 q 128 7 144 7 q 56 142 97 7 q 10 338 18 260 q 0 500 0 424 q 51 806 0 683 q 335 1118 129 988 q 346 1111 339 1117 z "},")":{"ha":311,"x_min":0,"x_max":294,"o":"m 294 572 q 19 25 294 218 l 6 25 q 0 40 0 31 q 39 138 0 42 q 106 322 83 249 q 133 494 121 378 q 146 686 146 604 q 122 976 146 751 q 114 1010 121 986 q 107 1038 107 1033 q 124 1074 107 1054 q 156 1093 140 1093 q 193 1046 174 1093 q 294 572 294 803 z "},"*":{"ha":563,"x_min":11,"x_max":549,"o":"m 440 917 m 224 1000 m 156 928 m 126 817 m 192 725 m 303 735 m 376 828 m 458 836 l 376 828 q 459 719 443 749 q 475 679 475 689 q 463 669 475 669 q 453 671 460 669 q 440 671 444 671 q 424 668 435 671 q 408 665 414 665 q 303 735 372 665 q 294 686 299 699 q 285 624 289 656 q 260 579 275 579 q 251 582 256 579 q 218 631 231 597 q 199 690 208 660 q 192 725 193 704 l 186 721 q 104 672 144 672 q 54 684 82 672 q 26 708 26 696 q 39 729 26 714 q 63 763 56 750 q 126 817 78 790 q 79 818 88 817 q 36 822 57 821 q 11 838 11 825 q 15 851 11 843 q 43 893 33 882 q 84 919 58 910 q 156 928 110 929 q 104 986 133 954 q 81 1040 81 1010 q 93 1075 81 1057 q 122 1093 106 1093 q 138 1088 129 1093 q 224 1000 147 1082 q 265 1090 239 1081 q 286 1094 276 1094 q 311 1067 310 1094 l 313 969 q 357 1000 339 992 q 454 1031 414 1026 q 490 1017 474 1032 q 503 982 506 1003 q 440 917 499 958 q 546 882 535 907 q 549 871 549 876 q 458 836 549 839 z "},"+":{"ha":631,"x_min":60,"x_max":600,"o":"m 251 317 q 253 310 253 313 q 251 317 253 314 m 369 725 l 361 586 q 361 576 361 582 q 435 585 392 581 q 510 576 463 586 q 582 551 564 565 q 600 521 600 536 q 598 508 600 515 q 596 500 596 501 q 517 472 596 494 q 431 443 499 467 l 379 447 q 385 400 385 410 q 376 336 388 375 q 350 272 367 293 q 324 243 342 258 q 251 317 290 243 q 243 401 247 340 l 246 460 q 110 471 188 461 q 77 502 94 478 q 60 543 60 526 q 72 574 60 560 l 110 578 l 251 565 q 253 592 251 583 q 263 724 254 647 q 294 758 269 740 q 336 775 318 775 q 365 763 351 775 l 369 725 z "},",":{"ha":210,"x_min":44,"x_max":199,"o":"m 142 159 q 136 157 142 159 q 109 126 131 154 q 86 90 88 97 q 69 0 69 7 q 61 -36 69 -19 q 49 -62 50 -57 q 47 -110 44 -82 q 69 -143 51 -146 q 113 -140 90 -142 q 142 -129 135 -139 q 160 -101 156 -110 q 174 -60 171 -82 q 197 144 193 100 q 172 164 199 164 q 142 159 154 164 z "},"-":{"ha":631,"x_min":60,"x_max":606,"o":"m 110 553 l 72 549 q 60 518 60 535 q 77 477 60 501 q 110 446 94 453 q 242 433 157 442 q 432 421 276 429 q 524 429 468 422 q 570 453 539 433 q 601 479 601 474 q 603 488 601 481 q 606 500 606 494 q 588 530 606 515 q 513 556 569 544 q 436 563 464 564 q 343 550 428 563 q 249 542 267 540 q 110 553 221 544 z "},".":{"ha":251,"x_min":24,"x_max":211,"o":"m 204 78 q 169 19 211 47 q 115 -3 136 -3 q 62 15 90 -3 q 24 56 33 32 l 26 115 q 101 171 49 171 q 136 164 118 171 l 175 132 l 204 78 z "},"/":{"ha":526,"x_min":4,"x_max":565,"o":"m 560 999 q 490 772 547 883 q 366 578 456 704 q 239 378 276 451 q 97 53 150 211 q 83 36 90 50 q 61 25 75 22 q 4 79 4 35 q 14 123 4 96 q 24 153 24 150 q 106 393 42 271 q 263 653 136 451 q 483 1035 389 856 q 554 1050 521 1056 q 565 1038 565 1049 q 562 1020 565 1032 q 558 1004 558 1008 q 560 999 558 1000 z "},":":{"ha":206,"x_min":33,"x_max":193,"o":"m 188 210 q 162 164 193 185 q 114 143 131 143 q 67 163 94 143 q 38 192 39 182 l 40 242 q 62 272 42 257 q 107 288 82 288 q 131 282 119 288 l 163 256 l 188 210 m 183 578 q 154 529 189 551 q 110 510 126 510 q 61 529 89 510 q 33 558 33 549 l 35 608 q 57 639 36 624 q 101 654 78 654 q 126 649 114 654 l 158 622 l 183 578 z "},";":{"ha":210,"x_min":44,"x_max":215,"o":"m 140 158 q 109 126 131 154 q 86 90 88 97 q 69 0 69 7 q 61 -36 69 -19 q 49 -62 50 -57 q 47 -87 44 -81 q 68 -96 50 -99 q 111 -93 89 -94 q 140 -82 133 -92 q 158 -54 154 -62 q 172 -12 169 -35 q 185 121 178 40 q 169 151 186 140 q 140 158 153 163 m 210 292 q 181 243 215 267 q 136 225 153 225 q 88 244 115 225 q 60 274 60 263 l 61 322 q 83 353 63 339 q 128 368 104 368 q 153 364 140 368 l 185 336 l 210 292 z "},"<":{"ha":417,"x_min":-3,"x_max":389,"o":"m 28 496 l 7 475 q 18 444 4 454 q 79 428 53 421 q 171 483 113 449 q 297 567 194 497 q 353 617 319 586 q 370 654 360 626 q 378 686 381 682 q 372 700 375 693 q 346 713 364 711 q 285 692 326 713 q 232 660 250 674 q 122 556 188 614 q 28 496 103 544 m 56 482 l 28 493 q 4 469 18 490 q 15 407 -3 428 q 104 349 47 386 q 233 268 126 332 q 301 239 260 256 q 343 239 314 236 q 376 246 374 242 q 384 255 379 250 q 389 269 389 260 q 385 285 389 276 q 344 331 378 304 q 290 367 310 357 q 150 422 231 388 q 56 482 131 435 z "},"=":{"ha":575,"x_min":13,"x_max":564,"o":"m 68 578 l 31 574 q 18 543 18 560 q 35 502 18 526 q 68 471 53 478 q 200 458 115 467 q 390 446 235 454 q 482 454 426 447 q 528 478 497 458 q 560 504 560 499 q 562 513 560 506 q 564 525 564 519 q 546 555 564 540 q 471 581 528 569 q 394 588 422 589 q 301 575 386 588 q 207 567 225 565 q 68 578 179 569 m 63 404 l 25 400 q 13 369 13 386 q 72 310 13 333 q 194 285 111 294 q 382 281 232 281 q 476 281 458 275 q 513 304 490 285 q 535 331 535 324 q 538 341 535 332 q 542 357 542 350 q 511 392 542 381 q 386 393 490 399 q 201 406 356 392 q 63 404 174 408 z "},">":{"ha":421,"x_min":28,"x_max":421,"o":"m 389 468 l 411 489 q 399 521 413 510 q 338 538 365 544 q 247 482 306 517 q 119 397 224 467 q 65 349 97 379 q 47 311 57 339 q 39 279 36 283 q 48 263 43 272 q 72 253 53 254 q 133 274 92 253 q 185 306 168 290 q 294 408 229 350 q 389 468 314 421 m 363 483 l 390 472 q 413 496 400 475 q 401 558 421 536 q 314 617 371 579 q 183 697 290 633 q 115 726 158 710 q 75 726 104 729 q 42 719 44 724 q 33 710 39 715 q 28 696 28 704 q 32 679 28 689 q 76 633 40 661 q 128 599 107 608 q 268 543 188 578 q 363 483 288 531 z "},"?":{"ha":465,"x_min":1,"x_max":481,"o":"m 481 904 q 438 750 481 818 q 319 540 354 618 q 289 410 310 518 q 246 261 269 307 q 144 374 144 282 q 254 596 144 439 q 364 768 364 753 q 328 861 364 815 q 257 907 293 907 q 127 849 199 907 q 40 790 56 790 q 1 829 1 790 q 124 964 1 872 q 267 1049 239 1049 q 414 1013 354 1049 q 481 904 481 972 m 313 76 q 271 6 313 35 q 208 -18 238 -18 q 138 17 150 -18 q 161 110 135 71 q 228 150 188 150 q 283 128 253 150 q 313 76 313 107 z "},"@":{"ha":929,"x_min":-6,"x_max":922,"o":"m 922 374 q 721 117 922 117 q 604 140 661 117 q 524 219 532 171 q 481 168 517 189 q 425 151 451 151 q 246 217 314 151 q 174 408 174 285 q 257 569 174 517 q 425 613 324 613 q 549 589 486 613 q 638 489 638 554 q 619 457 638 472 q 585 442 601 442 q 526 484 547 442 q 475 526 506 526 q 371 476 431 526 q 304 358 304 419 q 410 263 304 263 q 485 308 449 263 q 526 354 521 354 q 588 339 565 354 q 586 242 586 324 q 621 197 586 215 q 661 183 646 183 q 778 322 735 183 q 808 483 808 417 q 679 750 808 646 q 435 840 568 840 q 181 729 285 840 q 76 449 76 618 q 129 218 76 329 q 229 88 179 117 q 426 33 322 33 q 467 47 456 33 q 488 74 478 60 l 501 74 q 531 -14 531 33 q 481 -69 531 -69 q 158 44 301 -69 q -6 386 -6 175 q 38 610 -6 479 q 169 861 88 765 q 401 981 272 981 q 686 854 538 981 q 893 579 828 733 q 922 374 922 510 z "},"A":{"ha":1310,"x_min":-83,"x_max":1349,"o":"m 1349 475 q 1319 381 1335 401 q 1268 360 1304 360 q 1233 361 1260 360 q 1189 363 1207 363 q 1139 357 1192 363 q 1079 357 1096 353 q 1063 226 1071 292 q 1011 11 1043 92 q 903 -103 967 -103 q 808 121 808 -103 q 815 247 808 176 q 821 313 821 317 q 819 324 818 315 q 810 333 819 333 q 647 315 781 333 q 392 265 481 292 q 339 201 385 264 q 275 117 285 128 q 167 -28 221 44 q 29 -103 106 -103 q -83 3 -83 -103 q 354 493 -83 92 q 872 951 614 722 q 951 989 899 974 q 1042 1001 1000 1001 q 1129 950 1111 1001 q 1138 849 1138 928 l 1110 504 l 1303 504 q 1349 475 1332 506 m 831 513 q 819 618 825 565 q 786 708 813 683 q 664 588 735 671 q 558 458 611 522 l 831 513 z "},"B":{"ha":1283,"x_min":15,"x_max":1356,"o":"m 1356 290 q 1347 224 1356 275 q 1326 138 1336 165 q 932 -33 1243 58 q 336 -135 594 -135 q 74 -74 131 -135 q 17 189 17 -12 q 15 250 17 253 q 44 342 19 279 q 189 638 92 433 q 214 743 199 661 q 247 847 226 815 q 403 904 264 872 q 868 969 688 969 q 1181 842 1181 969 q 1140 736 1181 808 q 1060 631 1099 664 q 1294 496 1219 600 q 1356 290 1356 411 m 939 771 l 924 788 l 768 788 q 535 754 692 789 q 319 636 319 707 l 319 607 q 350 608 324 610 q 485 607 413 607 q 742 663 607 614 q 939 771 876 711 m 1194 267 q 1121 358 1194 303 q 1031 415 1063 403 q 729 444 950 444 q 556 429 621 444 q 436 399 496 414 q 340 382 389 390 q 260 354 286 371 q 193 260 222 329 q 172 163 167 196 q 497 208 372 208 q 608 172 608 208 q 544 108 608 149 q 474 69 510 89 q 1194 267 1194 160 z "},"C":{"ha":1300,"x_min":3,"x_max":1451,"o":"m 1451 272 q 1346 204 1451 250 q 393 -56 740 -56 q 136 -1 233 -56 q 3 242 3 74 q 217 600 3 396 q 651 914 396 772 q 1000 1049 893 1049 q 1079 951 1079 1049 q 1074 897 1079 910 q 1031 844 1067 876 q 789 728 1021 836 q 417 511 549 614 q 224 203 224 358 q 318 94 224 126 q 449 75 375 75 q 725 108 567 75 q 908 160 851 136 q 1206 304 1006 211 q 1344 358 1339 358 q 1409 327 1367 358 q 1451 272 1451 296 z "},"D":{"ha":1239,"x_min":3,"x_max":1482,"o":"m 1482 707 q 1215 365 1482 536 q 718 132 1025 242 q 449 46 710 129 q 222 -40 367 19 q 88 -72 143 -72 q 15 -51 32 -72 q 3 14 3 -35 q 71 341 3 118 q 139 657 139 564 q 124 754 139 711 q 181 778 139 778 q 226 771 201 778 q 261 871 247 799 q 288 978 275 953 q 368 1029 313 1029 q 403 1025 383 1029 q 429 963 429 1006 l 429 954 q 436 904 429 924 q 713 1026 635 1007 q 943 1039 765 1039 q 1274 996 1157 1039 q 1482 707 1482 921 m 1308 667 q 1126 836 1308 776 q 881 878 999 878 q 540 799 693 878 q 436 746 489 772 q 367 694 375 711 q 275 436 317 596 q 208 169 242 303 q 831 353 419 229 q 1308 667 1308 506 z "},"E":{"ha":943,"x_min":-1,"x_max":1090,"o":"m 1082 538 q 626 469 921 503 q 368 404 435 449 q 244 176 282 347 q 349 163 269 163 q 556 231 365 163 q 763 300 746 300 q 835 289 813 300 q 910 213 874 272 q 606 -1 851 104 q 214 -101 371 -101 q 56 -64 106 -101 q -1 86 -1 -19 q 125 586 -1 222 q 286 967 244 931 q 561 1010 333 1010 q 711 1001 679 1010 q 842 911 781 985 l 819 849 q 725 843 783 843 q 685 844 713 843 q 644 844 658 844 q 475 817 526 844 q 400 669 400 778 l 399 611 q 678 625 482 610 q 949 640 883 640 q 1045 619 1000 640 q 1090 565 1090 599 q 1082 538 1090 551 z "},"F":{"ha":1007,"x_min":1,"x_max":1229,"o":"m 1229 550 q 1200 503 1229 538 q 1149 465 1171 469 q 919 429 1126 461 q 631 368 782 408 q 518 340 574 354 q 399 296 440 319 q 300 99 346 265 q 225 -187 263 -44 q 118 -335 178 -335 q 28 -272 61 -335 q 1 -181 1 -225 q 81 59 1 -89 q 160 238 160 207 q 126 300 160 257 q 92 385 92 343 q 175 456 92 442 q 265 464 219 460 q 417 838 267 467 q 524 978 464 953 q 785 999 576 999 q 822 1000 793 999 q 869 1001 851 1001 q 1033 900 1033 1001 q 988 804 1033 831 q 893 788 957 788 l 683 788 q 554 685 619 788 q 504 553 494 592 l 1082 622 q 1172 608 1132 622 q 1229 550 1229 589 z "},"G":{"ha":1060,"x_min":-1,"x_max":1035,"o":"m 1035 93 q 924 26 1035 74 q 653 -61 801 -26 q 315 -106 471 -106 q -1 217 -1 -106 q 136 544 -1 354 q 444 856 267 724 q 760 994 631 994 q 913 954 839 994 q 999 833 999 907 q 936 686 999 772 q 810 594 871 594 q 765 654 779 594 q 740 760 744 750 q 658 807 717 815 q 361 582 572 796 q 146 272 146 364 q 246 132 146 179 q 411 96 319 96 q 507 117 454 96 q 572 183 572 144 q 574 203 572 185 q 574 226 575 217 q 569 241 572 239 q 451 272 565 243 q 365 328 365 294 q 642 418 365 418 q 689 418 665 418 q 710 417 713 417 q 933 358 874 417 q 1035 93 999 297 z "},"H":{"ha":1092,"x_min":0,"x_max":1293,"o":"m 1293 644 q 1206 550 1293 589 q 1094 519 1139 519 l 801 519 q 767 449 783 485 q 744 360 744 397 l 744 22 q 693 -28 744 -8 q 631 -42 657 -42 q 535 10 571 -42 q 506 89 506 50 q 525 236 506 97 q 556 483 549 388 q 475 479 525 479 q 392 481 442 479 q 338 483 342 483 q 201 344 224 483 q 189 86 194 215 q 88 -54 176 -54 q 0 110 0 -54 q 1 155 0 131 q 3 179 3 179 q 161 1008 3 651 q 215 1017 190 1017 q 314 874 314 1017 q 306 768 314 832 q 293 678 299 724 q 382 672 315 671 q 467 674 476 674 q 622 699 581 669 q 658 842 639 733 q 699 989 676 946 q 810 1057 735 1057 q 897 1017 865 1057 q 924 938 924 983 q 890 850 924 922 q 839 732 850 764 q 1092 711 965 721 q 1293 644 1293 690 z "},"I":{"ha":419,"x_min":4,"x_max":446,"o":"m 439 1011 q 368 651 446 854 q 229 310 299 481 q 151 -44 193 206 q 96 -68 119 -68 q 4 64 4 -68 q 49 314 4 183 q 163 597 69 378 q 321 1007 256 815 q 389 1033 354 1033 q 439 1011 414 1033 z "},"J":{"ha":806,"x_min":-14,"x_max":840,"o":"m 840 963 q 732 428 840 754 q 507 -10 619 92 q 392 -39 475 -39 q 161 1 297 -39 q -14 129 -14 54 q 1 213 -14 165 q 49 265 22 269 q 138 219 108 258 q 178 153 158 186 q 275 119 208 119 q 376 133 339 119 q 475 226 438 157 q 544 507 508 288 q 600 832 594 810 q 611 924 610 875 q 615 1013 613 968 q 642 1096 617 1058 q 683 1097 664 1097 q 818 1049 782 1097 q 840 963 840 1019 z "},"K":{"ha":917,"x_min":-17,"x_max":1114,"o":"m 1114 688 q 851 476 1114 610 q 493 313 672 394 l 976 124 q 983 106 983 115 q 903 13 983 46 q 807 -10 847 -10 q 538 54 717 -10 q 274 156 522 58 q 118 -365 232 49 q 58 -386 93 -386 q -17 -290 -17 -386 q 72 82 -17 -254 q 274 736 178 481 q 493 1086 406 1086 q 549 990 549 1086 q 481 706 549 896 q 406 463 408 504 q 732 643 515 499 q 1008 761 911 761 q 1076 738 1038 761 q 1114 688 1114 714 z "},"L":{"ha":1113,"x_min":0,"x_max":1164,"o":"m 1164 171 q 1128 90 1164 146 q 1054 26 1089 26 q 969 44 1058 26 q 774 63 881 63 q 404 19 611 63 q 96 -25 197 -25 q 28 -15 47 -25 q 0 44 0 -1 q 51 163 0 49 q 138 382 110 293 q 274 1021 211 631 q 346 1086 283 1086 q 401 1058 372 1086 q 236 247 406 668 q 413 276 264 251 q 547 299 535 299 q 875 283 729 299 q 1164 171 1164 251 z "},"M":{"ha":1408,"x_min":0,"x_max":1507,"o":"m 1504 626 q 1378 333 1488 575 q 1260 40 1276 108 q 1257 11 1257 29 q 1262 -54 1257 -7 q 1267 -126 1267 -101 q 1164 -249 1267 -249 q 1103 -212 1132 -249 q 1074 -137 1074 -176 q 1078 -115 1074 -125 l 1290 594 q 1297 613 1297 608 q 1296 614 1297 614 q 1286 604 1293 613 q 961 328 1124 467 q 586 104 681 104 q 361 492 479 104 q 257 278 303 404 q 189 61 247 250 q 138 -21 179 31 q 78 -72 97 -72 q 6 -32 21 -72 q 0 38 0 -17 q 88 265 0 58 q 265 656 183 496 q 413 863 372 863 q 547 735 497 863 q 600 486 582 644 q 617 321 608 403 q 976 579 797 450 q 1383 810 1306 810 q 1474 751 1438 810 q 1507 650 1507 701 q 1504 626 1507 636 z "},"N":{"ha":1193,"x_min":-8,"x_max":1335,"o":"m 1335 1028 q 1231 726 1335 969 q 1003 275 1118 463 q 774 43 860 43 q 613 186 697 43 q 488 463 551 289 q 426 638 457 550 q 240 92 342 458 q 185 31 233 63 q 113 -1 138 -1 q 17 56 50 -1 q -8 147 -8 97 q 17 282 -8 221 q 231 711 81 436 q 400 961 321 878 q 454 978 411 972 q 528 989 517 986 q 721 315 679 743 q 778 263 739 299 q 978 689 858 403 q 1078 915 1054 869 q 1279 1110 1183 1110 q 1332 1075 1321 1110 q 1335 1028 1335 1067 z "},"O":{"ha":939,"x_min":-7,"x_max":939,"o":"m 939 529 q 794 114 939 306 q 390 -103 632 -103 q 94 7 201 -103 q -7 289 -7 113 q 43 542 -7 360 q 189 907 106 765 q 419 1094 297 1094 q 788 939 640 1094 q 939 529 939 779 m 699 475 q 640 754 704 585 q 472 950 565 950 q 325 801 396 950 q 232 507 272 686 q 199 299 199 360 q 221 163 199 229 q 358 44 263 44 q 601 168 508 44 q 699 475 689 286 z "},"P":{"ha":907,"x_min":6,"x_max":1011,"o":"m 1011 785 q 894 570 1011 669 q 626 464 776 471 q 501 469 578 461 q 381 478 415 478 q 286 468 331 478 q 224 311 261 414 q 167 96 167 156 l 167 -54 q 156 -93 167 -68 q 126 -124 143 -124 q 40 -87 75 -124 q 6 -11 6 -51 q 90 506 6 28 q 138 769 104 592 q 149 844 143 807 q 174 924 158 894 q 232 971 193 938 q 247 972 238 972 q 290 947 274 972 q 324 896 307 922 q 685 1007 538 986 q 710 1008 696 1008 q 900 951 807 1008 q 1011 785 1011 885 m 819 796 q 671 872 819 872 q 583 840 644 872 q 493 796 506 800 q 421 757 463 785 q 363 694 363 719 q 383 663 363 668 q 414 661 388 661 q 649 685 538 661 q 785 731 751 707 q 819 796 819 754 z "},"Q":{"ha":1013,"x_min":0,"x_max":1042,"o":"m 1042 111 q 976 56 1028 74 q 873 38 943 46 q 781 22 803 31 q 728 -12 764 17 q 672 -50 692 -40 q 422 -112 544 -112 q 111 -5 222 -112 q 0 299 0 103 q 38 539 0 392 q 165 846 85 728 q 411 999 269 999 q 801 883 651 999 q 972 501 972 751 q 951 338 972 438 q 903 200 928 229 q 968 167 961 171 q 1042 111 1010 143 m 706 504 q 643 756 683 694 q 522 819 611 806 l 394 818 q 260 565 315 793 q 213 201 213 374 q 244 125 213 168 q 422 46 300 50 q 506 121 454 44 q 417 204 417 181 q 485 263 417 243 q 590 276 532 276 q 613 275 608 276 q 679 407 647 321 q 706 504 708 483 z "},"R":{"ha":1260,"x_min":0,"x_max":1311,"o":"m 1311 797 q 1186 656 1311 711 q 949 594 1096 615 q 808 581 878 588 q 972 493 890 536 q 1160 367 1094 425 q 1249 210 1249 286 q 1238 150 1249 176 q 1194 115 1222 115 q 1113 192 1181 115 q 1029 272 1044 268 l 626 375 q 531 392 594 375 q 447 446 447 415 q 608 618 447 544 q 792 678 653 638 q 910 717 869 701 q 1031 788 997 751 q 967 811 1022 811 q 674 760 860 811 q 449 651 471 703 q 268 243 392 526 q 228 76 249 197 q 214 -28 221 24 q 163 -203 194 -136 q 53 -294 118 -294 q 6 -267 35 -294 q 32 4 0 -122 q 121 260 51 78 q 247 625 199 460 q 186 643 240 629 q 143 665 144 656 q 153 732 140 690 q 171 801 171 794 q 238 826 172 801 q 293 858 282 843 q 336 924 314 892 q 414 951 361 951 q 494 942 422 951 q 576 932 565 932 q 661 960 589 932 q 813 1011 750 994 q 1007 1039 917 1039 q 1203 985 1115 1039 q 1311 797 1311 918 z "},"S":{"ha":983,"x_min":0,"x_max":1035,"o":"m 1035 175 q 872 -33 1035 56 q 557 -142 751 -100 q 347 -172 414 -172 q 242 -154 321 -172 q 94 -110 150 -133 l 94 -50 q 168 86 93 28 l 550 49 q 833 135 701 54 l 833 165 q 524 303 749 272 q 169 347 346 325 q 0 546 0 392 q 142 767 0 644 q 432 951 261 868 q 665 1028 592 1028 q 782 1025 768 1028 q 833 949 839 1011 q 688 822 826 869 q 425 742 556 782 q 267 575 282 682 q 551 533 410 554 q 879 435 765 500 q 1035 175 1035 343 z "},"T":{"ha":810,"x_min":0,"x_max":1239,"o":"m 1239 993 q 1144 918 1239 950 q 1036 892 1086 897 q 521 788 801 864 q 508 731 519 765 q 492 676 494 688 q 421 404 457 540 q 351 60 351 125 l 347 -110 q 310 -139 347 -128 q 265 -147 282 -147 q 189 -24 189 -147 q 218 168 189 35 q 260 335 242 279 q 294 521 271 367 q 321 738 321 685 q 299 776 321 765 l 58 764 q 0 856 0 750 q 31 935 0 915 q 104 947 51 947 q 135 944 111 947 q 168 940 158 942 l 997 1065 q 1165 1047 1082 1056 q 1239 993 1239 1035 z "},"U":{"ha":763,"x_min":-4,"x_max":874,"o":"m 874 971 q 782 660 874 889 q 544 217 676 393 q 215 -8 378 -8 q 40 182 104 -8 q -4 408 -4 313 q 21 664 -4 422 q 57 1057 49 933 q 85 1065 61 1057 q 128 1074 108 1074 q 268 1023 215 1074 q 321 890 321 972 q 250 580 321 872 q 179 269 179 288 q 189 214 179 228 q 238 196 201 196 q 458 418 340 196 q 632 840 543 575 q 715 1101 674 971 l 796 1101 q 874 971 874 1025 z "},"V":{"ha":968,"x_min":10,"x_max":1072,"o":"m 1072 932 q 922 625 1072 889 q 621 143 769 357 q 399 -107 449 -107 q 285 65 342 -107 q 204 386 256 154 q 150 558 164 558 q 117 576 129 558 q 101 593 106 593 q 94 592 99 593 q 10 639 10 582 q 28 711 10 658 q 100 801 69 801 q 145 790 107 801 q 222 778 183 778 q 357 707 319 778 q 396 524 383 658 q 413 381 404 443 q 450 211 431 256 q 514 288 475 233 q 569 365 563 357 q 735 643 606 408 q 886 932 858 867 q 951 999 908 985 q 1044 1004 975 1006 q 1072 932 1072 1003 z "},"W":{"ha":1431,"x_min":-89,"x_max":1513,"o":"m 1513 961 q 1460 778 1513 950 q 1376 511 1386 546 q 1306 285 1328 346 q 1194 29 1253 131 q 1119 8 1182 8 q 929 190 1021 8 q 822 443 876 317 q 557 163 689 303 q 254 -57 342 -57 q 181 -35 229 -57 q 117 21 122 -8 q 61 364 110 61 q -8 725 24 590 q -54 825 -15 747 q -89 929 -89 890 q -64 996 -89 951 q 8 1054 -32 1054 q 88 1024 36 1054 q 149 968 140 994 q 242 618 186 842 q 333 267 306 365 q 590 543 463 406 q 901 749 796 749 q 1064 636 989 749 q 1157 453 1094 590 q 1293 949 1218 494 q 1334 1008 1297 972 q 1401 1044 1371 1044 q 1481 1021 1449 1044 q 1513 961 1513 997 z "},"X":{"ha":999,"x_min":-7,"x_max":1033,"o":"m 1033 979 l 618 456 q 777 342 665 410 q 928 235 889 275 q 994 78 994 167 q 953 6 994 35 q 896 -17 919 -17 q 675 97 808 -17 q 503 301 549 204 q 268 54 363 172 q 175 -53 192 -42 q 47 -76 142 -76 q 10 -33 31 -76 q -7 18 -7 3 q 169 246 -7 67 q 410 485 290 365 q 239 718 308 600 q 151 956 151 864 q 172 1012 151 989 q 211 1035 193 1035 q 401 814 329 1035 q 494 599 433 740 q 671 829 583 714 q 950 1035 847 1035 q 1033 1014 975 1035 l 1033 979 z "},"Y":{"ha":574,"x_min":-3,"x_max":743,"o":"m 743 1036 q 650 781 735 906 q 474 589 585 686 q 315 463 394 525 q 247 261 283 436 q 214 0 215 100 q 138 -28 201 -28 q 92 76 92 -28 q 104 253 92 119 q 114 446 115 381 q 65 582 113 485 q 17 690 18 679 q -3 921 -3 854 q 46 1122 -3 1064 l 129 1111 q 151 1026 151 1081 q 148 967 151 1007 q 144 911 144 928 q 147 879 144 892 l 228 585 q 493 860 313 642 q 676 1058 654 1056 q 743 1036 719 1061 z "},"Z":{"ha":1092,"x_min":0,"x_max":1142,"o":"m 1142 63 q 1061 -1 1142 21 q 942 -18 1003 -18 q 483 7 738 -18 q 69 126 78 46 q 381 482 60 225 q 786 775 590 650 q 525 814 508 814 q 349 801 485 814 q 219 789 214 789 q 92 803 149 789 q 0 868 0 822 q 263 1024 0 1024 q 682 994 479 1024 q 1033 828 1033 944 q 675 483 1033 767 q 267 196 329 210 q 556 186 319 186 l 844 196 q 1015 172 932 196 q 1142 63 1142 136 z "},"\\":{"ha":450,"x_min":-28,"x_max":585,"o":"m -22 911 q 242 406 1 860 q 482 -44 479 -43 q 517 -74 485 -46 q 572 -53 543 -68 q 581 -15 585 -26 q 381 390 490 158 q 325 513 363 444 q 247 638 308 546 q 183 764 219 675 q 143 865 178 790 q 138 889 142 867 q 107 936 133 904 q 72 949 101 942 q 18 957 43 957 q -28 931 -28 957 q -22 911 -28 922 z "},"^":{"ha":546,"x_min":0,"x_max":560,"o":"m 24 900 l 0 871 q 1 857 0 863 q 19 835 7 842 q 99 824 65 810 q 168 875 106 826 q 258 940 196 896 q 318 1010 283 965 q 335 1060 326 1024 q 340 1100 344 1096 q 331 1117 335 1108 q 296 1126 319 1129 q 224 1093 271 1125 q 163 1044 182 1065 q 94 982 132 1011 q 24 900 72 964 m 467 794 l 494 769 q 532 788 521 769 q 547 865 560 832 q 500 938 544 872 q 439 1032 479 967 q 372 1096 414 1058 q 324 1115 360 1104 q 283 1121 289 1125 q 267 1113 275 1117 q 254 1079 254 1103 q 285 1004 256 1054 q 329 942 310 963 q 389 869 361 908 q 467 794 406 847 z "},"_":{"ha":761,"x_min":14,"x_max":768,"o":"m 750 0 q 540 -35 640 -40 q 256 -10 410 -28 q 96 6 122 6 q 53 -3 64 6 q 25 14 40 3 q 14 58 14 43 q 28 85 14 75 q 68 100 35 88 q 233 125 139 125 q 499 96 324 125 q 590 96 522 92 q 707 96 667 100 q 734 78 719 94 q 753 50 749 63 q 768 11 768 8 q 750 0 768 7 z "},"`":{"ha":1389,"x_min":615,"x_max":725,"o":"m 672 1032 q 651 994 660 1013 q 628 931 629 953 q 621 882 626 908 q 615 849 615 856 q 626 822 615 839 q 640 806 636 806 q 696 824 689 806 q 722 921 707 868 q 725 1018 725 928 q 672 1032 725 1029 z "},"a":{"ha":1100,"x_min":-56,"x_max":1089,"o":"m 1089 444 q 1040 339 1074 364 q 939 319 1013 319 q 869 326 893 319 q 842 146 856 236 q 732 -18 804 -18 q 675 88 675 -18 q 692 231 675 144 q 708 314 708 318 q 678 310 706 317 q 644 304 650 304 q 508 285 625 304 q 296 242 368 263 q 231 156 274 211 q 144 42 188 100 q 33 -18 94 -18 q -56 67 -56 -18 q 294 458 -56 138 q 708 825 501 642 q 843 865 753 865 q 914 824 900 865 q 919 743 919 807 l 897 467 l 1053 467 q 1089 444 1076 468 m 729 485 q 725 629 733 593 q 701 657 719 656 q 668 668 676 660 q 556 553 626 638 q 457 431 507 492 l 729 485 z "},"b":{"ha":1028,"x_min":0,"x_max":1072,"o":"m 1072 258 q 1047 136 1072 203 q 733 -1 981 72 q 256 -82 463 -82 q 46 -33 92 -82 q 0 176 0 15 q 0 225 0 228 q 22 299 3 249 q 138 536 61 372 q 157 621 146 554 q 185 704 168 678 q 308 749 199 724 q 682 801 538 801 q 932 700 932 801 q 899 615 932 672 q 835 531 867 557 q 1072 258 1072 485 m 738 643 l 725 656 l 601 656 q 415 629 540 657 q 243 535 243 590 l 243 511 q 374 511 243 511 q 580 556 472 517 q 738 643 688 594 m 943 239 q 883 313 943 268 q 811 358 838 349 q 571 382 747 382 q 434 369 485 382 q 336 346 383 357 q 260 332 297 339 q 194 310 215 322 q 142 236 165 289 q 125 156 119 183 q 385 193 285 193 q 474 164 474 193 q 422 113 474 144 q 367 82 394 97 q 943 239 943 153 z "},"c":{"ha":1138,"x_min":1,"x_max":1160,"o":"m 1160 196 q 1076 142 1160 178 q 313 -67 592 -67 q 1 171 1 -67 q 172 458 1 294 q 519 708 315 596 q 799 817 713 817 q 863 739 863 817 q 858 696 863 706 q 822 653 851 679 q 631 560 815 647 q 332 386 438 469 q 178 140 178 264 q 254 54 178 79 q 357 39 299 39 q 578 65 451 39 q 726 106 681 86 q 964 222 803 147 q 1075 265 1069 265 q 1126 240 1092 265 q 1160 196 1160 214 z "},"d":{"ha":1117,"x_min":6,"x_max":1189,"o":"m 1189 586 q 776 207 1189 394 q 363 57 649 149 q 181 -11 296 36 q 72 -37 117 -37 q 15 -19 29 -37 q 6 32 6 -7 q 60 294 6 115 q 114 546 114 472 q 101 625 114 590 q 147 643 114 643 q 183 638 164 643 q 211 718 200 660 q 233 804 224 783 q 297 844 253 844 q 325 840 310 844 q 346 790 346 826 l 346 785 q 351 744 346 760 q 572 842 510 826 q 757 851 614 851 q 1021 818 928 851 q 1189 586 1189 757 m 1049 554 q 904 690 1049 642 q 707 724 801 724 q 435 660 557 724 q 351 617 393 639 q 296 578 303 590 q 222 369 256 497 q 169 157 196 264 q 667 304 338 204 q 1049 554 1049 426 z "},"e":{"ha":743,"x_min":-4,"x_max":897,"o":"m 879 503 q 507 439 743 468 q 267 386 322 417 q 190 228 182 343 q 215 224 197 224 q 267 228 232 224 q 311 232 303 232 q 459 264 325 232 q 606 296 593 296 q 664 289 646 296 q 724 226 696 275 q 481 56 678 140 q 167 -25 293 -25 q 42 6 81 -25 q -4 125 -4 42 q 96 525 -4 235 q 227 832 192 800 q 446 864 263 864 q 571 851 529 864 q 682 772 632 832 l 669 726 q 563 726 667 722 q 378 713 442 731 q 279 600 279 683 l 279 563 q 529 574 346 561 q 772 586 721 586 q 855 570 813 586 q 897 531 897 554 q 879 503 897 517 z "},"f":{"ha":757,"x_min":11,"x_max":886,"o":"m 829 524 q 763 425 829 438 q 608 400 736 419 q 417 360 515 386 q 340 340 378 350 q 261 311 289 328 q 199 192 226 290 q 157 21 178 106 q 89 -67 129 -67 q 29 -25 51 -67 q 11 36 11 7 q 64 196 11 97 q 117 315 117 294 q 94 356 117 328 q 71 413 71 385 q 126 460 71 451 q 188 465 157 463 q 297 726 242 596 q 384 840 336 815 q 565 865 432 865 q 631 870 569 865 q 736 875 693 875 q 886 821 886 875 q 842 738 886 774 q 760 703 799 703 l 476 688 q 371 614 410 682 q 346 525 339 557 l 732 571 q 829 524 829 571 z "},"g":{"ha":906,"x_min":3,"x_max":849,"o":"m 846 168 q 756 111 849 153 q 532 36 654 67 q 257 -1 381 -1 q 3 256 3 -1 q 114 518 3 365 q 360 768 217 663 q 613 878 508 878 q 735 846 676 878 q 803 750 803 808 q 778 650 803 697 q 701 594 749 594 q 625 626 656 594 q 585 683 614 638 q 547 715 565 715 q 322 552 479 715 q 164 314 164 389 q 336 185 164 185 q 463 236 463 185 q 380 283 463 253 q 297 344 297 313 q 432 414 297 400 q 572 417 458 417 q 758 375 708 417 q 846 168 818 326 z "},"h":{"ha":933,"x_min":3,"x_max":1038,"o":"m 1038 428 q 967 351 1038 382 q 879 328 914 328 l 643 328 q 597 200 597 229 l 597 -71 q 557 -111 597 -94 q 507 -122 528 -122 q 431 -81 460 -122 q 407 -17 407 -49 q 424 100 407 -10 q 446 299 440 222 q 383 294 424 294 q 316 297 356 294 q 272 299 276 299 q 163 188 181 299 q 154 -19 158 83 q 72 -132 144 -132 q 3 0 3 -132 q 4 36 3 17 q 6 56 6 56 q 131 718 6 433 q 183 726 160 726 q 271 604 271 726 q 263 497 271 582 q 368 490 285 490 q 542 560 499 490 q 578 688 556 579 q 650 757 592 757 q 719 725 694 757 q 742 663 742 699 q 714 592 742 649 q 674 497 682 522 q 875 481 775 489 q 1038 428 1038 464 z "},"i":{"ha":363,"x_min":3,"x_max":357,"o":"m 350 864 q 310 576 357 732 q 214 303 263 439 q 140 29 160 144 q 76 0 99 0 q 3 106 3 0 q 78 408 3 231 q 257 860 219 749 q 310 881 283 881 q 350 864 331 881 z "},"j":{"ha":506,"x_min":-25,"x_max":543,"o":"m 543 610 q 474 267 543 476 q 331 -12 403 53 q 256 -32 310 -32 q 99 31 210 -32 q -25 147 -25 97 q -14 189 -25 167 q 17 217 -1 217 q 79 185 39 218 q 176 151 119 151 q 226 156 215 151 q 278 213 253 167 q 346 390 303 260 q 407 597 389 517 q 415 713 411 614 q 433 765 417 742 q 543 610 543 769 z "},"k":{"ha":688,"x_min":-4,"x_max":763,"o":"m 763 547 q 568 406 763 496 q 310 294 439 350 l 643 206 q 675 188 660 197 q 704 165 704 172 q 686 94 704 124 q 657 71 671 71 q 426 111 590 71 q 200 178 279 147 q 88 -135 160 79 q 47 -147 71 -147 q -4 -85 -4 -147 q 57 163 -4 -61 q 194 597 128 428 q 343 829 283 829 q 390 803 369 829 q 407 767 407 782 q 358 593 407 704 q 306 447 308 475 q 529 561 378 471 q 718 635 651 635 q 748 602 733 635 q 763 547 763 569 z "},"l":{"ha":919,"x_min":4,"x_max":935,"o":"m 935 110 q 906 44 935 89 q 847 -6 875 -6 q 779 8 850 -6 q 622 22 708 22 q 327 -13 493 22 q 81 -49 161 -49 q 26 -40 40 -49 q 4 8 4 -28 q 44 103 4 11 q 113 279 92 207 q 222 789 172 476 q 281 840 231 840 q 325 818 301 840 q 193 169 328 507 q 440 211 461 211 q 703 199 588 211 q 935 110 935 174 z "},"m":{"ha":1165,"x_min":-11,"x_max":1194,"o":"m 1192 567 q 1092 332 1179 525 q 997 97 1010 151 q 994 74 994 89 q 999 22 994 60 q 1003 -35 1003 -15 q 921 -133 1003 -133 q 872 -104 894 -133 q 849 -44 849 -75 q 851 -26 849 -35 l 1022 542 q 1026 557 1029 557 q 1019 550 1024 556 q 758 328 889 439 q 458 149 535 149 q 278 458 372 149 q 196 288 232 389 q 140 114 188 265 q 100 49 133 90 q 51 8 67 8 q -6 40 6 8 q -11 96 -11 53 q 128 435 -11 132 q 319 756 272 756 q 428 653 388 756 q 469 454 456 581 q 483 322 476 389 q 771 529 626 425 q 1096 713 1033 713 q 1169 667 1139 713 q 1194 585 1194 626 q 1192 567 1194 575 z "},"n":{"ha":999,"x_min":3,"x_max":1076,"o":"m 1076 822 q 993 582 1076 776 q 811 221 903 371 q 626 35 696 35 q 499 150 567 35 q 399 371 450 232 q 350 510 374 440 q 201 74 282 368 q 157 26 194 51 q 99 0 119 0 q 22 44 49 0 q 3 119 3 79 q 22 226 3 176 q 193 569 72 350 q 329 769 265 703 q 372 783 338 778 q 431 792 422 789 q 585 253 551 596 q 631 211 600 240 q 792 551 696 324 q 871 733 851 696 q 1032 889 956 889 q 1074 861 1065 889 q 1076 822 1076 854 z "},"o":{"ha":765,"x_min":-4,"x_max":775,"o":"m 775 494 q 649 158 775 318 q 314 -18 508 -18 q 78 71 163 -18 q -4 296 -4 156 q 36 485 -4 351 q 153 753 86 647 q 338 889 240 889 q 643 793 525 889 q 775 494 775 686 m 529 439 q 540 492 529 438 q 550 588 550 546 q 383 743 550 757 q 215 542 294 736 q 149 294 149 379 q 165 204 149 244 q 272 126 194 126 q 463 260 379 126 q 529 439 529 368 z "},"p":{"ha":782,"x_min":3,"x_max":807,"o":"m 807 558 q 716 401 807 468 q 501 329 625 335 q 396 333 464 328 q 289 340 319 340 q 208 332 244 340 q 168 193 200 311 q 132 7 132 56 l 132 -112 q 124 -143 132 -124 q 99 -168 113 -168 q 29 -137 58 -168 q 3 -79 3 -111 q 69 335 3 -47 q 108 546 82 403 q 118 607 113 576 q 138 669 125 646 q 183 707 153 681 q 196 708 188 708 q 231 688 217 708 q 258 647 244 668 q 546 736 429 719 q 706 700 618 746 q 807 558 807 644 m 654 567 q 535 628 654 628 q 465 603 514 628 q 393 567 403 571 q 335 536 368 558 q 289 486 289 506 q 331 460 289 460 q 517 478 429 460 q 626 515 599 496 q 654 567 654 533 z "},"q":{"ha":818,"x_min":-3,"x_max":831,"o":"m 831 140 q 738 86 815 100 q 621 69 679 78 q 580 42 608 64 q 535 11 551 19 q 335 -39 432 -39 q 86 47 175 -39 q -3 290 -3 133 q 68 610 -3 433 q 326 850 164 850 q 638 757 518 850 q 775 453 775 653 q 757 321 775 401 q 719 211 739 235 q 772 185 765 188 q 831 140 804 165 m 521 449 q 415 706 521 608 l 376 718 q 201 533 260 706 q 158 251 158 407 q 197 174 158 228 q 335 88 253 96 q 401 149 360 85 q 331 215 331 196 q 404 265 331 251 q 486 271 468 278 q 521 449 521 389 z "},"r":{"ha":844,"x_min":-14,"x_max":889,"o":"m 868 707 q 574 497 857 531 q 760 364 674 438 q 889 179 889 253 q 876 115 889 154 q 844 67 863 67 q 778 139 835 67 q 713 214 722 211 l 403 375 q 340 386 382 375 q 285 422 285 401 q 392 538 285 488 q 514 578 421 550 q 593 603 565 592 q 672 650 651 625 q 631 665 667 665 q 431 614 565 665 q 276 526 292 563 q 244 417 264 499 q 200 278 224 335 q 174 167 188 247 q 133 43 164 113 q 21 -71 83 -71 q -11 -53 10 -71 q 7 128 -14 44 q 67 299 19 176 q 150 542 118 432 q 81 568 117 550 q 88 613 79 585 q 100 660 99 654 q 181 697 135 669 q 211 740 196 719 q 261 760 226 760 q 315 753 267 760 q 369 746 363 746 q 473 781 371 746 q 657 817 575 817 q 794 807 757 817 q 868 707 874 783 z "},"s":{"ha":775,"x_min":7,"x_max":774,"o":"m 774 178 q 538 -25 774 51 q 264 -79 372 -79 q 186 -67 244 -79 q 76 -33 117 -51 l 76 11 q 90 78 76 38 q 143 139 111 131 l 432 139 q 459 136 435 139 q 501 133 483 133 q 610 183 582 133 l 610 206 q 383 299 546 285 q 128 314 256 306 q 7 453 7 339 q 111 615 7 525 q 326 753 200 692 q 499 810 444 810 q 617 726 617 810 q 514 618 617 643 q 318 592 415 606 q 199 492 208 569 q 411 457 304 475 q 656 375 569 428 q 774 178 774 301 z "},"t":{"ha":690,"x_min":1,"x_max":975,"o":"m 969 858 q 975 843 975 851 q 897 774 975 811 q 810 740 836 743 q 608 732 754 733 q 429 713 496 731 q 427 675 429 693 q 414 631 425 657 q 363 413 407 617 q 313 138 313 190 l 313 -17 q 214 -46 300 -46 q 153 54 153 -46 q 176 207 153 100 q 210 340 196 296 q 239 490 218 367 q 261 665 261 622 q 246 690 261 679 l 46 643 q 1 757 1 633 q 26 819 1 804 q 85 831 43 831 q 109 828 90 831 q 136 825 128 825 l 800 925 q 921 911 885 931 q 969 858 939 900 z "},"u":{"ha":628,"x_min":0,"x_max":701,"o":"m 701 786 q 635 535 701 714 q 450 181 554 321 q 175 1 315 1 q 35 154 86 1 q 0 335 0 258 q 19 540 0 346 q 49 854 42 756 q 71 861 51 854 q 106 868 90 868 q 225 690 225 868 q 179 505 225 675 q 133 319 133 335 q 154 235 133 279 q 199 190 175 190 q 451 536 314 190 q 575 890 514 713 l 640 890 q 701 786 701 829 z "},"v":{"ha":814,"x_min":35,"x_max":843,"o":"m 843 810 q 606 369 843 751 q 303 -21 363 -21 q 213 117 258 -21 q 147 374 189 189 q 106 511 117 511 q 94 515 94 511 q 114 533 94 519 l 114 533 q 110 532 113 533 q 35 589 35 524 q 44 643 35 614 q 126 694 71 694 q 172 690 143 694 q 221 683 208 685 q 269 626 246 682 q 301 485 293 571 q 314 369 307 419 q 344 235 328 269 q 456 358 375 261 q 576 535 493 404 q 679 719 667 676 q 729 806 692 757 q 819 868 778 869 q 843 810 843 867 z "},"w":{"ha":1107,"x_min":-112,"x_max":1169,"o":"m 1169 778 q 1126 631 1169 768 q 1060 417 1068 444 q 1003 236 1021 285 q 914 31 961 113 q 854 14 904 14 q 703 160 775 14 q 617 363 660 261 q 404 138 510 250 q 161 -37 232 -37 q 103 -19 142 -37 q 53 25 57 1 q -49 588 25 215 q -85 668 -53 606 q -112 751 -112 719 q -93 806 -112 769 q -35 851 -67 851 q 29 828 -12 851 q 78 782 71 804 q 225 222 125 594 q 431 443 328 332 q 681 607 596 607 q 810 517 749 607 q 885 369 833 481 q 993 767 932 404 q 1026 815 996 786 q 1081 844 1056 844 q 1143 825 1117 844 q 1169 778 1169 806 z "},"x":{"ha":764,"x_min":-42,"x_max":792,"o":"m 792 822 l 458 403 q 585 313 496 367 q 707 226 675 258 q 760 101 760 172 q 726 44 760 67 q 681 26 700 26 q 504 118 611 26 q 367 281 403 203 q 179 82 254 176 q 104 -3 118 6 q 1 -21 78 -21 q -28 13 -12 -21 q -42 54 -42 42 q 100 236 -42 92 q 292 426 196 332 q 156 613 211 519 q 85 804 85 731 q 103 850 85 829 q 133 867 118 867 q 286 690 228 867 q 360 518 311 632 q 501 703 431 610 q 724 867 642 867 q 792 850 744 867 l 792 822 z "},"y":{"ha":435,"x_min":-11,"x_max":567,"o":"m 567 797 q 467 596 560 697 q 286 438 426 553 q 161 303 181 351 q 146 7 150 274 q 92 -22 132 -22 q 39 110 46 -22 q 38 353 39 231 q 18 429 36 386 q 0 471 0 472 q -6 569 0 489 q -11 700 -11 650 q 25 879 -11 836 l 82 886 q 119 844 113 854 q 133 797 125 833 l 129 494 q 253 618 176 526 q 378 758 347 729 q 507 825 449 825 q 567 797 542 825 z "},"z":{"ha":892,"x_min":-28,"x_max":929,"o":"m 929 36 q 858 3 929 3 q 801 6 835 3 q 765 10 767 10 q 646 1 768 10 q 428 -7 524 -7 q 51 114 51 -7 q 153 257 51 169 q 357 404 226 321 q 514 500 435 453 q 350 506 483 506 q 209 488 318 506 q 104 469 100 469 q 15 499 57 469 q -28 565 -28 528 q 182 689 -28 689 q 517 667 356 689 q 799 533 799 626 q 514 311 799 486 q 190 135 247 149 q 321 132 226 128 q 461 136 463 136 l 692 143 q 836 122 769 143 q 929 36 929 93 z "},"|":{"ha":189,"x_min":8,"x_max":179,"o":"m 139 1071 q 179 840 179 964 q 157 611 179 764 q 133 372 135 454 q 154 18 131 182 q 150 -6 150 13 q 135 -23 150 -18 q 106 -28 119 -28 q 56 14 68 -28 q 44 74 50 44 q 8 317 8 185 q 29 621 8 388 q 54 1069 51 865 q 110 1115 78 1104 q 129 1096 124 1119 q 139 1071 135 1072 z "},"~":{"ha":540,"x_min":13,"x_max":526,"o":"m 17 1043 q 53 1075 35 1058 q 133 1099 88 1099 q 182 1093 157 1099 q 285 1053 243 1079 q 333 1031 319 1031 q 422 1064 379 1031 q 465 1078 440 1078 q 490 1068 482 1078 q 526 1014 526 1024 q 518 1001 526 1006 q 450 971 494 988 q 367 949 394 949 q 354 950 360 949 q 163 1029 269 989 q 128 1006 154 1029 q 79 979 103 983 q 32 997 54 975 q 13 1033 13 1015 q 17 1043 13 1040 z "},"¡":{"ha":436,"x_min":3,"x_max":438,"o":"m 3 38 q 60 310 3 175 q 228 671 104 414 q 297 853 306 829 q 322 874 317 874 q 386 842 371 874 q 397 772 397 822 q 347 529 397 679 q 236 278 300 389 q 196 160 225 257 q 149 19 165 56 q 122 0 143 8 q 89 -8 101 -8 q 3 38 3 -8 m 335 943 q 382 919 361 919 q 428 990 419 919 q 386 1078 438 1068 q 326 1056 351 1075 q 297 1007 297 1035 q 335 943 297 975 z "},"£":{"ha":840,"x_min":0,"x_max":838,"o":"m 838 119 q 590 -7 838 -7 q 528 -8 588 -7 q 422 -8 469 -8 q 21 57 1 -8 q 22 104 21 81 q 43 121 25 121 q 68 117 53 121 q 131 217 86 111 q 175 379 175 324 l 175 414 q 146 425 164 425 q 97 415 132 425 q 42 406 61 406 q 0 414 19 406 l 0 446 q 33 515 0 461 q 93 574 67 568 q 243 717 168 589 q 368 942 306 829 q 522 1060 443 1060 q 639 944 571 1060 q 701 797 701 839 q 685 762 701 776 q 647 747 668 747 q 575 778 638 747 q 503 808 513 808 q 358 600 396 808 q 426 563 385 589 l 426 496 q 331 404 360 475 q 301 263 314 361 q 274 128 289 165 q 376 122 292 122 q 575 132 524 122 q 649 169 600 136 q 728 199 694 199 q 800 176 763 199 q 838 119 838 153 z "},"¦":{"ha":206,"x_min":7,"x_max":169,"o":"m 21 522 q 7 385 7 503 q 44 74 7 190 q 56 14 50 44 q 106 -28 68 -28 q 135 -23 119 -28 q 150 -6 150 -18 q 154 18 150 13 q 133 372 131 182 q 144 521 135 438 q 107 533 122 533 q 75 503 75 533 q 75 501 75 501 q 78 510 76 503 l 21 522 m 94 610 q 79 625 96 625 q 64 624 75 625 q 49 622 53 622 q 31 640 29 622 q 13 731 13 678 q 33 888 13 775 q 54 1069 53 1001 q 110 1115 78 1104 q 129 1096 124 1119 q 139 1071 135 1072 q 169 890 169 990 q 138 614 169 839 l 94 610 z "},"§":{"ha":558,"x_min":7,"x_max":515,"o":"m 424 950 q 410 985 419 969 q 339 1033 386 1022 q 196 1054 251 1054 q 138 1042 154 1054 q 58 915 58 988 q 57 835 58 824 q 90 769 61 789 q 185 704 151 726 q 306 639 219 682 q 364 609 351 622 q 382 558 376 596 q 388 492 389 513 q 385 476 385 474 q 367 438 388 464 q 307 407 342 404 q 294 404 294 408 q 345 365 294 394 q 400 339 396 336 q 425 354 413 347 q 460 392 447 371 q 515 529 515 483 q 501 611 515 561 q 463 694 485 668 q 377 750 436 724 q 279 775 318 776 q 156 790 169 772 q 117 860 117 843 q 122 882 117 871 q 144 934 132 908 q 178 960 156 960 q 196 957 186 960 q 333 881 256 940 q 347 876 340 876 q 424 950 379 876 m 99 154 q 113 119 103 135 q 183 71 136 82 q 326 50 271 50 q 385 63 368 50 q 464 189 464 117 q 465 269 464 281 q 432 336 461 315 q 307 407 378 367 q 271 413 303 410 q 189 438 235 417 q 147 460 153 453 q 125 504 146 461 q 110 567 111 532 q 108 600 108 583 q 160 635 107 610 q 254 658 218 661 q 264 663 264 657 q 195 722 264 675 q 122 765 126 768 q 97 750 110 758 q 63 713 75 733 q 7 575 7 621 q 21 493 7 543 q 60 411 38 436 q 145 355 86 382 q 243 329 204 328 q 367 313 353 332 q 381 274 381 294 q 368 229 381 253 q 354 200 361 214 q 324 169 351 197 q 281 149 304 149 q 208 182 253 149 q 185 189 199 189 q 99 154 150 189 z "},"¨":{"ha":1382,"x_min":0,"x_max":0,"o":""},"©":{"ha":996,"x_min":7,"x_max":990,"o":"m 990 464 q 779 110 990 242 q 421 4 610 4 q 183 54 308 4 q 7 244 7 122 q 19 311 7 235 q 19 378 24 329 q 24 447 15 421 q 192 681 46 528 q 300 782 268 761 q 388 817 315 792 q 464 828 418 828 q 494 830 468 828 q 528 832 521 832 q 829 744 694 832 q 990 464 990 640 m 831 468 q 739 667 831 576 q 531 758 647 758 q 472 746 522 758 q 397 731 414 733 q 269 588 333 658 q 182 422 189 489 q 179 301 183 375 q 167 244 167 228 q 269 118 167 168 q 415 79 351 79 q 689 185 561 79 q 831 468 831 303 m 631 260 q 550 249 574 249 q 388 274 460 249 q 271 401 271 313 q 406 533 271 478 q 588 578 513 578 q 613 551 603 578 q 621 515 621 532 q 554 471 621 482 q 431 450 432 450 q 364 371 364 428 q 499 325 364 325 q 540 326 518 325 q 561 328 563 328 q 583 331 567 328 q 608 333 600 333 q 622 311 621 333 q 631 260 624 276 z "},"«":{"ha":614,"x_min":-3,"x_max":599,"o":"m 28 496 l 7 475 q 18 444 4 454 q 79 428 53 421 q 171 483 113 449 q 297 567 194 497 q 353 617 319 586 q 370 654 360 626 q 378 686 381 682 q 372 700 375 693 q 346 713 364 711 q 285 692 326 713 q 232 660 250 674 q 122 556 188 614 q 28 496 103 544 m 56 482 l 28 493 q 4 469 18 490 q 15 407 -3 428 q 104 349 47 386 q 233 268 126 332 q 301 239 260 256 q 343 239 314 236 q 376 246 374 242 q 384 255 379 250 q 389 269 389 260 q 385 285 389 276 q 340 332 378 304 q 290 367 310 357 q 150 422 231 388 q 56 482 131 435 m 240 513 l 218 492 q 231 460 217 469 q 292 443 264 436 q 382 497 342 457 q 510 581 406 521 q 564 632 532 600 q 583 669 572 642 q 590 701 593 697 q 583 717 586 708 q 558 728 576 726 q 496 707 538 728 q 444 675 461 690 q 335 572 400 629 q 240 513 315 560 m 265 500 l 236 511 q 214 486 226 508 q 225 425 206 446 q 313 367 257 404 q 443 286 336 350 q 511 257 469 274 q 553 257 524 254 q 585 263 582 258 q 594 272 589 267 q 599 288 599 278 q 594 303 599 294 q 550 350 586 322 q 499 385 519 375 q 358 440 439 406 q 265 500 339 453 z "},"¯":{"ha":761,"x_min":-3,"x_max":751,"o":"m 733 990 q 524 956 624 951 q 239 981 393 963 q 79 997 106 997 q 36 988 47 997 q 8 1004 24 993 q -3 1049 -3 1033 q 13 1075 -3 1067 q 51 1090 18 1079 q 217 1117 122 1117 q 482 1086 307 1117 q 574 1086 506 1082 q 690 1088 650 1090 q 717 1069 703 1086 q 736 1040 732 1053 q 751 1003 751 999 q 733 990 751 997 z "},"°":{"ha":357,"x_min":17,"x_max":351,"o":"m 344 918 q 197 825 311 825 q 113 840 153 825 q 17 943 17 875 q 24 982 17 961 q 90 1067 43 1033 q 188 1101 138 1101 q 226 1094 208 1101 q 311 1040 276 1076 q 351 954 351 1000 q 344 918 351 936 m 240 950 q 244 972 244 961 q 232 1008 244 992 q 201 1024 219 1024 q 151 992 179 1024 q 126 954 132 968 q 130 914 118 931 q 167 897 142 897 q 211 915 189 897 q 240 950 233 932 z "},"´":{"ha":631,"x_min":0,"x_max":0,"o":""},"¸":{"ha":286,"x_min":0,"x_max":0,"o":""},"»":{"ha":614,"x_min":0,"x_max":618,"o":"m 586 465 l 608 486 q 596 517 610 507 q 535 533 563 540 q 444 478 503 513 q 317 394 421 464 q 263 344 294 375 q 244 307 256 335 q 238 275 233 279 q 243 261 240 268 q 269 249 250 250 q 331 269 289 249 q 382 301 365 288 q 493 406 426 347 q 586 465 511 417 m 560 479 l 588 468 q 610 492 597 471 q 600 554 618 533 q 511 613 568 575 q 381 693 488 629 q 314 722 356 706 q 272 722 301 725 q 239 715 242 719 q 231 706 236 711 q 226 692 226 701 q 229 676 226 685 q 274 629 238 657 q 325 594 304 604 q 465 539 385 574 q 560 479 485 526 m 361 454 l 383 475 q 371 507 385 496 q 310 524 338 531 q 219 468 278 503 q 92 383 196 453 q 38 335 69 365 q 19 297 29 325 q 11 265 8 269 q 20 249 15 258 q 44 239 25 240 q 106 260 64 239 q 157 292 140 276 q 267 394 201 336 q 361 454 286 407 m 335 469 l 363 458 q 385 482 372 461 q 374 544 393 522 q 286 603 343 565 q 156 683 263 619 q 88 713 131 696 q 47 713 76 715 q 14 706 17 710 q 6 696 11 701 q 0 682 0 690 q 4 665 0 675 q 49 619 13 647 q 100 585 79 594 q 240 529 160 564 q 335 469 260 517 z "},"¿":{"ha":474,"x_min":-1,"x_max":476,"o":"m -1 178 q 40 331 -1 263 q 158 540 124 464 q 189 671 168 563 q 232 821 208 774 q 335 707 335 800 q 224 485 335 642 q 114 313 114 329 q 149 220 114 267 q 221 174 185 174 q 351 232 279 174 q 438 290 422 290 q 476 251 476 290 q 354 117 476 208 q 211 32 239 32 q 64 68 124 32 q -1 178 -1 108 m 167 1006 q 207 1075 167 1047 q 269 1099 240 1099 q 340 1064 328 1099 q 317 970 343 1010 q 250 931 290 931 q 196 953 225 931 q 167 1006 167 975 z "},"À":{"ha":1297,"x_min":-83,"x_max":1349,"o":"m 1349 475 q 1296 357 1331 376 q 1178 346 1276 346 q 1074 351 1096 346 q 1058 222 1067 286 q 1010 10 1040 89 q 903 -103 967 -103 q 810 117 810 -103 q 817 253 810 176 q 825 324 825 329 q 801 332 817 332 q 636 313 774 332 q 378 263 467 289 q 332 200 371 261 q 275 117 288 131 q 167 -28 221 44 q 29 -103 106 -103 q -83 3 -83 -103 q 354 493 -83 92 q 872 951 614 722 q 951 989 899 974 q 1042 1001 1000 1001 q 1129 950 1111 1001 q 1138 849 1138 928 l 1110 504 l 1303 504 q 1349 475 1332 506 m 831 513 q 786 708 831 667 q 664 588 735 671 q 558 458 611 522 l 831 513 m 831 1186 l 800 1190 q 785 1160 783 1178 q 811 1103 788 1119 q 911 1069 847 1092 q 989 1042 940 1053 q 1057 1025 1024 1033 q 1131 1015 1115 1014 q 1171 1026 1143 1015 q 1200 1040 1199 1036 q 1204 1047 1200 1040 q 1208 1061 1208 1054 q 1200 1082 1208 1071 q 1144 1115 1188 1097 q 1086 1135 1108 1131 q 936 1153 1024 1140 q 831 1186 915 1160 z "},"Á":{"ha":1310,"x_min":-83,"x_max":1349,"o":"m 1349 475 q 1288 344 1331 374 q 1161 321 1254 321 q 1074 328 1104 321 q 1058 204 1067 267 q 1010 3 1040 79 q 903 -103 967 -103 q 801 138 801 -103 q 806 242 801 185 q 810 294 810 299 q 793 300 806 300 q 622 276 768 300 q 358 222 447 249 q 322 179 351 221 q 275 117 286 129 q 167 -28 221 44 q 29 -103 106 -103 q -83 3 -83 -103 q 354 493 -83 92 q 872 951 614 722 q 951 989 899 974 q 1042 1001 1000 1001 q 1129 950 1111 1001 q 1138 849 1138 928 l 1110 504 l 1303 504 q 1349 475 1332 506 m 831 513 q 819 618 825 565 q 786 708 813 683 q 664 588 735 671 q 558 458 611 522 l 831 513 m 1104 1092 l 1131 1104 q 1128 1138 1139 1124 q 1075 1171 1103 1171 q 1028 1161 1064 1172 q 972 1144 976 1146 q 825 1101 944 1138 q 758 1071 799 1092 q 731 1040 749 1064 q 714 1013 713 1017 q 730 981 724 988 q 760 975 736 975 q 861 994 814 975 q 996 1061 917 1025 q 1104 1092 1018 1067 z "},"Â":{"ha":1290,"x_min":-83,"x_max":1349,"o":"m 1019 1089 l 1044 1107 q 1036 1139 1049 1128 q 976 1164 1006 1168 q 881 1119 943 1147 q 811 1093 856 1108 q 751 1050 788 1078 q 729 1015 743 1042 q 718 985 715 989 q 722 968 719 976 q 746 956 728 956 q 807 968 765 954 q 865 993 849 982 q 919 1042 900 1015 q 1019 1089 933 1060 m 1006 1154 l 976 1161 q 957 1133 967 1157 q 976 1074 954 1093 q 1072 1028 1010 1057 q 1150 978 1097 1015 q 1221 958 1176 968 q 1263 965 1233 958 q 1294 975 1292 971 q 1299 985 1296 979 q 1303 997 1303 990 q 1297 1017 1303 1006 q 1247 1057 1286 1033 q 1192 1083 1213 1076 q 1107 1107 1160 1090 q 1006 1154 1086 1117 m 1349 475 q 1288 344 1331 374 q 1161 321 1254 321 q 1074 328 1104 321 q 1058 204 1067 267 q 1010 3 1040 79 q 903 -103 967 -103 q 801 138 801 -103 q 806 242 801 185 q 810 294 810 299 q 793 300 806 300 q 622 276 768 300 q 358 222 447 249 q 322 179 351 221 q 275 117 286 129 q 167 -28 221 44 q 29 -103 106 -103 q -83 3 -83 -103 q 354 493 -83 92 q 872 951 614 722 q 951 989 899 974 q 1042 1001 1000 1001 q 1129 950 1111 1001 q 1138 849 1138 928 l 1110 504 l 1303 504 q 1349 475 1332 506 m 831 513 q 819 618 825 565 q 786 708 813 683 q 664 588 735 671 q 558 458 611 522 l 831 513 z "},"Ä":{"ha":1232,"x_min":0,"x_max":1578,"o":"m 1488 1033 q 1460 983 1488 994 q 1410 979 1449 979 q 1338 994 1368 979 q 1299 1050 1299 1014 q 1342 1103 1299 1082 q 1406 1119 1375 1119 q 1467 1094 1446 1119 q 1488 1033 1488 1068 m 1093 1029 q 1003 947 1093 947 q 933 970 961 947 q 904 1029 904 993 q 940 1094 904 1072 q 999 1111 967 1111 q 1093 1029 1093 1111 m 1578 379 q 1538 253 1576 289 q 1438 225 1506 225 q 1358 230 1415 225 q 1269 233 1300 235 q 1243 4 1265 147 q 1211 -156 1226 -76 q 1089 -269 1175 -269 q 1028 -258 1038 -269 q 992 -158 996 -217 q 986 -1 986 -94 l 992 194 q 976 197 988 199 q 951 194 957 194 q 528 142 714 194 q 399 -21 514 138 q 314 -139 357 -81 q 204 -250 256 -215 q 124 -269 175 -269 q 0 -150 0 -269 q 63 -28 0 -107 q 154 74 72 -15 q 1078 910 386 331 q 1165 942 1097 926 q 1244 956 1224 956 q 1338 893 1317 956 q 1347 778 1347 863 l 1314 403 q 1446 403 1325 401 q 1578 379 1525 404 m 1001 371 l 1010 500 q 1004 618 1011 565 q 956 626 999 626 q 813 486 894 581 q 692 344 753 415 l 1001 371 z "},"È":{"ha":943,"x_min":-1,"x_max":1090,"o":"m 1082 538 q 642 471 900 499 q 411 419 467 453 q 293 229 338 375 q 394 219 310 219 q 578 260 411 219 q 763 300 746 300 q 835 289 813 300 q 910 213 874 272 q 606 -1 851 104 q 214 -101 371 -101 q 56 -64 106 -101 q -1 86 -1 -19 q 125 586 -1 222 q 286 967 244 931 q 561 1010 333 1010 q 711 1001 679 1010 q 842 911 781 985 l 842 838 q 565 835 703 836 q 400 669 400 817 l 400 632 q 679 635 488 631 q 949 640 894 640 q 1045 619 1000 640 q 1090 565 1090 599 q 1082 538 1090 551 m 400 1196 l 371 1199 q 354 1169 353 1188 q 381 1113 357 1129 q 482 1079 417 1100 q 560 1050 511 1063 q 628 1035 593 1043 q 701 1025 686 1024 q 742 1035 714 1025 q 771 1050 769 1044 q 774 1057 771 1050 q 778 1069 778 1064 q 769 1090 778 1079 q 715 1125 757 1107 q 657 1144 679 1140 q 507 1163 593 1150 q 400 1196 485 1169 z "},"É":{"ha":943,"x_min":-1,"x_max":1090,"o":"m 1082 538 q 632 481 893 496 q 376 432 439 468 q 228 204 285 381 q 250 178 221 178 q 329 194 257 178 q 560 254 444 225 q 763 300 742 300 q 835 289 813 300 q 910 213 874 272 q 606 -1 851 104 q 214 -101 371 -101 q 56 -64 106 -101 q -1 86 -1 -19 q 125 586 -1 222 q 286 967 244 931 q 561 1010 333 1010 q 711 1001 679 1010 q 842 911 781 985 l 842 838 q 565 835 703 836 q 400 669 400 817 l 400 632 q 679 635 488 631 q 949 640 894 640 q 1045 619 1000 640 q 1090 565 1090 599 q 1082 538 1090 551 m 596 1149 l 622 1161 q 619 1194 631 1181 q 567 1228 594 1228 q 519 1218 556 1229 q 464 1201 468 1203 q 317 1158 436 1194 q 250 1128 290 1149 q 222 1097 240 1121 q 206 1069 204 1074 q 222 1038 215 1044 q 251 1032 228 1032 q 353 1051 306 1032 q 488 1118 408 1082 q 596 1149 510 1124 z "},"Ê":{"ha":1003,"x_min":-1,"x_max":1090,"o":"m 558 1143 l 581 1161 q 572 1193 585 1182 q 513 1217 542 1221 q 417 1174 479 1201 q 347 1147 390 1163 q 288 1104 325 1133 q 265 1069 279 1096 q 253 1039 251 1043 q 258 1022 256 1031 q 282 1008 264 1010 q 343 1022 301 1008 q 403 1049 385 1036 q 458 1096 422 1061 q 558 1143 474 1113 m 542 1203 l 513 1210 q 493 1183 503 1206 q 515 1124 490 1144 q 610 1078 549 1107 q 685 1026 636 1065 q 757 1008 713 1018 q 799 1013 769 1007 q 830 1024 828 1019 q 835 1033 832 1028 q 839 1046 839 1039 q 833 1065 839 1054 q 783 1107 822 1082 q 728 1135 749 1128 q 685 1140 706 1138 q 643 1158 656 1146 q 542 1203 626 1175 m 1082 538 q 632 479 896 497 q 379 429 442 467 q 236 196 289 376 q 257 176 231 176 q 299 181 269 176 q 338 186 328 186 q 550 243 354 186 q 763 300 746 300 q 835 289 813 300 q 910 213 874 272 q 606 -1 851 104 q 214 -101 371 -101 q 56 -64 106 -101 q -1 86 -1 -19 q 125 586 -1 222 q 286 967 244 931 q 561 1010 333 1010 q 711 1001 679 1010 q 842 911 781 985 l 842 838 q 565 835 703 836 q 400 669 400 817 l 400 632 q 679 635 488 631 q 949 640 894 640 q 1045 619 1000 640 q 1090 565 1090 599 q 1082 538 1090 551 z "},"Ò":{"ha":939,"x_min":3,"x_max":949,"o":"m 949 517 q 804 101 949 293 q 400 -115 642 -115 q 104 -6 211 -115 q 3 276 3 100 q 53 529 3 347 q 199 894 115 753 q 429 1082 307 1082 q 797 926 650 1082 q 949 517 949 767 m 703 417 q 524 903 703 903 q 289 719 400 903 q 189 368 183 542 q 233 157 193 244 q 389 40 288 40 q 622 200 524 40 q 703 417 703 328 m 375 1243 l 346 1246 q 329 1217 328 1235 q 356 1160 332 1176 q 457 1126 392 1147 q 535 1097 486 1110 q 603 1082 568 1090 q 676 1072 661 1071 q 717 1082 689 1072 q 746 1097 744 1092 q 749 1104 746 1097 q 753 1117 753 1111 q 744 1138 753 1126 q 690 1172 732 1154 q 632 1192 654 1188 q 482 1210 568 1197 q 375 1243 460 1217 z "},"Ó":{"ha":939,"x_min":3,"x_max":949,"o":"m 949 517 q 804 101 949 293 q 400 -115 642 -115 q 104 -6 211 -115 q 3 276 3 100 q 53 529 3 347 q 199 894 115 753 q 429 1082 307 1082 q 797 926 650 1082 q 949 517 949 767 m 646 461 q 631 685 646 589 q 510 885 597 885 q 356 750 432 885 q 249 481 296 643 q 208 286 208 342 q 246 189 208 244 q 397 110 300 110 q 599 257 531 110 q 646 461 646 358 m 549 1169 l 575 1182 q 572 1215 583 1201 q 519 1249 547 1249 q 472 1239 508 1250 q 417 1222 421 1224 q 269 1179 389 1215 q 203 1149 243 1169 q 175 1118 193 1142 q 158 1090 157 1094 q 174 1059 168 1065 q 204 1053 181 1053 q 306 1072 258 1053 q 440 1139 361 1103 q 549 1169 463 1144 z "},"Ô":{"ha":628,"x_min":11,"x_max":957,"o":"m 514 1158 l 539 1176 q 531 1208 543 1197 q 471 1232 500 1236 q 375 1189 438 1217 q 306 1163 349 1178 q 246 1119 282 1147 q 224 1085 238 1111 q 213 1054 210 1058 q 215 1040 214 1047 q 240 1029 221 1029 q 303 1043 258 1028 q 360 1067 343 1056 q 414 1111 389 1086 q 514 1158 429 1126 m 500 1224 l 471 1231 q 451 1203 461 1226 q 471 1143 449 1163 q 567 1097 504 1126 q 643 1051 592 1085 q 714 1032 671 1043 q 757 1036 728 1032 q 788 1044 786 1040 q 794 1054 790 1049 q 797 1067 797 1060 q 792 1085 797 1075 q 742 1126 781 1103 q 686 1153 707 1146 q 601 1176 654 1160 q 500 1224 581 1186 m 957 488 q 813 72 957 264 q 408 -144 650 -144 q 113 -35 219 -144 q 11 249 11 71 q 61 500 11 319 q 207 867 124 724 q 438 1053 315 1053 q 806 897 658 1053 q 957 488 957 738 m 654 432 q 639 656 654 560 q 518 856 607 856 q 364 721 442 856 q 257 451 304 614 q 217 257 217 313 q 254 160 217 215 q 406 81 308 81 q 607 228 539 81 q 654 432 654 329 z "},"Ö":{"ha":740,"x_min":0,"x_max":757,"o":"m 757 493 q 642 161 757 315 q 318 -12 511 -12 q 82 76 167 -12 q 0 301 0 161 q 40 504 0 358 q 157 796 90 682 q 342 946 244 946 q 638 819 518 946 q 757 493 757 693 m 553 463 q 519 660 553 532 q 403 836 474 836 q 244 600 315 836 q 189 310 189 411 q 207 232 189 268 q 317 168 239 168 q 496 292 424 168 q 553 463 553 389 m 356 1018 q 326 969 361 993 q 281 951 299 951 q 233 970 261 951 q 204 999 206 989 l 207 1049 q 229 1080 208 1065 q 274 1094 250 1094 q 297 1090 286 1094 l 331 1063 l 356 1018 m 590 1018 q 565 972 596 993 q 517 951 533 951 q 469 971 497 951 q 440 1000 442 990 l 443 1050 q 465 1081 444 1065 q 510 1096 485 1096 q 533 1090 522 1096 l 565 1064 l 590 1018 z "},"×":{"ha":449,"x_min":-6,"x_max":443,"o":"m 404 688 l 300 596 q 285 579 294 590 q 340 546 332 551 q 397 493 364 529 q 440 425 435 450 q 443 411 443 418 q 433 388 443 397 q 419 378 426 383 q 379 378 417 374 q 327 387 343 381 q 250 436 311 393 l 207 475 q 185 446 192 453 q 126 396 167 425 q 56 360 81 363 q 21 368 32 357 q 10 385 15 376 q 8 393 8 386 q 28 476 8 439 q 86 547 38 493 l 106 565 q 13 654 64 601 q 13 733 -6 686 q 46 758 19 754 l 78 739 l 181 644 q 186 640 183 643 q 228 676 215 667 q 328 763 267 714 q 407 754 361 776 q 428 718 426 744 l 404 688 z "},"Ù":{"ha":763,"x_min":-4,"x_max":874,"o":"m 874 971 q 782 660 874 889 q 544 217 676 393 q 215 -8 378 -8 q 40 182 104 -8 q -4 408 -4 313 q 21 664 -4 422 q 57 1057 49 933 q 85 1065 61 1057 q 128 1074 108 1074 q 274 1013 215 1074 q 332 869 332 951 q 267 627 332 850 q 201 386 201 404 q 213 330 201 346 q 260 314 224 314 q 475 504 363 314 q 638 871 556 640 q 715 1101 676 986 l 796 1101 q 874 971 874 1025 z "},"Ú":{"ha":763,"x_min":-4,"x_max":874,"o":"m 874 971 q 782 660 874 889 q 544 217 676 393 q 215 -8 378 -8 q 40 182 104 -8 q -4 408 -4 313 q 21 664 -4 422 q 57 1057 49 933 q 85 1065 61 1057 q 128 1074 108 1074 q 274 1013 215 1074 q 332 869 332 951 q 267 627 332 850 q 201 386 201 404 q 213 330 201 346 q 260 314 224 314 q 475 504 363 314 q 638 871 556 640 q 715 1101 676 986 l 796 1101 q 874 971 874 1025 m 694 1144 l 722 1158 q 719 1192 729 1178 q 665 1225 694 1225 q 618 1215 656 1225 q 563 1199 568 1200 q 417 1156 536 1192 q 350 1125 390 1144 q 322 1094 340 1117 q 306 1065 304 1071 q 307 1050 306 1058 q 328 1032 311 1038 q 356 1028 339 1028 q 433 1043 397 1028 q 588 1115 499 1076 q 694 1144 610 1121 z "},"Û":{"ha":628,"x_min":-4,"x_max":874,"o":"m 457 1168 l 476 1183 q 469 1208 481 1200 q 424 1228 446 1231 q 346 1193 374 1221 q 290 1171 325 1172 q 243 1138 271 1160 q 225 1110 236 1131 q 215 1085 214 1089 q 219 1072 217 1078 q 239 1061 224 1061 q 288 1072 254 1061 q 333 1092 321 1083 q 376 1131 346 1100 q 457 1168 390 1143 m 446 1221 l 422 1226 q 407 1204 415 1222 q 422 1156 406 1171 q 499 1119 450 1143 q 561 1079 519 1110 q 618 1064 583 1072 q 651 1069 628 1064 q 677 1078 675 1074 q 683 1088 679 1082 q 679 1110 688 1097 q 594 1164 660 1143 q 526 1183 568 1168 q 446 1221 504 1200 m 874 971 q 782 660 874 889 q 544 217 676 393 q 215 -8 378 -8 q 40 182 104 -8 q -4 408 -4 313 q 21 664 -4 422 q 57 1057 49 933 q 85 1065 61 1057 q 128 1074 108 1074 q 274 1013 215 1074 q 332 869 332 951 q 267 627 332 850 q 201 386 201 404 q 213 330 201 346 q 260 314 224 314 q 475 504 363 314 q 638 871 556 640 q 715 1101 676 986 l 796 1101 q 874 971 874 1025 z "},"Ü":{"ha":790,"x_min":-17,"x_max":863,"o":"m 863 951 q 794 701 863 915 q 581 228 701 410 q 204 -29 410 -29 q 28 153 92 -29 q -17 371 -17 278 q 8 626 -17 383 q 44 1019 36 894 q 72 1028 49 1019 q 115 1036 96 1036 q 261 975 203 1036 q 319 831 319 914 q 254 590 319 813 q 189 349 189 367 q 199 293 189 307 q 247 275 211 275 q 463 467 350 275 q 625 833 543 603 q 703 1064 664 949 l 783 1064 q 863 951 863 986 m 413 1072 q 383 1024 418 1046 q 338 1004 356 1004 q 290 1024 318 1004 q 261 1053 263 1043 l 264 1103 q 286 1133 265 1118 q 331 1149 307 1149 q 354 1143 343 1149 l 388 1117 l 413 1072 m 647 1072 q 622 1026 653 1047 q 574 1006 590 1006 q 526 1025 554 1006 q 497 1054 499 1044 l 500 1104 q 522 1135 501 1119 q 567 1150 542 1150 q 590 1144 579 1150 l 622 1118 l 647 1072 z "},"à":{"ha":1100,"x_min":-11,"x_max":1135,"o":"m 1135 449 q 1085 343 1119 368 q 985 325 1058 325 q 915 331 938 325 q 888 150 901 240 q 776 -14 849 -14 q 719 92 719 -14 q 736 235 719 149 q 753 318 753 322 q 725 315 750 321 q 690 308 694 308 q 553 290 671 308 q 342 246 413 267 q 275 163 319 217 q 189 46 232 104 q 79 -14 140 -14 q -11 71 -11 -14 q 339 463 -11 142 q 753 829 546 646 q 889 869 797 869 q 960 828 944 869 q 965 747 965 811 l 943 471 l 1099 471 q 1135 449 1121 472 m 774 489 q 769 633 778 597 q 746 663 764 661 q 713 672 721 664 q 601 557 671 643 q 501 435 551 496 l 774 489 m 703 1074 l 674 1076 q 657 1047 656 1065 q 683 990 660 1007 q 785 957 719 978 q 863 928 814 940 q 931 913 896 921 q 1004 903 989 901 q 1044 913 1017 903 q 1074 928 1072 922 q 1077 935 1074 928 q 1081 947 1081 942 q 1072 968 1081 957 q 1018 1003 1060 985 q 960 1022 982 1018 q 810 1040 896 1028 q 703 1074 788 1047 z "},"á":{"ha":1100,"x_min":-4,"x_max":1140,"o":"m 1140 456 q 1092 351 1126 375 q 990 332 1065 332 q 921 338 944 332 q 894 158 908 249 q 783 -6 856 -6 q 726 100 726 -6 q 743 243 726 156 q 760 326 760 331 q 732 322 757 329 q 696 315 701 315 q 560 297 676 315 q 349 254 419 275 q 282 169 326 224 q 196 54 239 111 q 86 -6 146 -6 q -4 79 -4 -6 q 346 471 -4 150 q 760 836 553 654 q 896 878 804 878 q 965 836 951 878 q 972 754 972 818 l 949 479 l 1104 479 q 1140 456 1128 481 m 729 485 q 725 629 733 593 q 701 657 719 656 q 668 668 676 660 q 556 553 626 638 q 457 431 507 492 l 729 485 m 999 1011 l 1026 1025 q 1024 1058 1033 1044 q 969 1092 999 1092 q 922 1082 960 1092 q 867 1065 872 1067 q 721 1022 840 1058 q 654 992 694 1011 q 626 960 644 983 q 610 932 608 938 q 624 902 618 908 q 656 896 631 896 q 757 915 710 896 q 892 982 813 946 q 999 1011 914 988 z "},"â":{"ha":1083,"x_min":-7,"x_max":1156,"o":"m 1139 461 q 1090 357 1124 381 q 989 338 1063 338 q 919 343 943 338 q 892 164 906 253 q 782 0 854 0 q 725 106 725 0 q 742 249 725 161 q 758 332 758 336 q 728 328 756 335 q 694 321 700 321 q 557 303 675 321 q 346 260 418 281 q 281 175 324 229 q 193 60 236 117 q 83 0 144 0 q -7 83 -7 0 q 343 476 -7 154 q 758 842 551 658 q 893 883 803 883 q 964 842 950 883 q 969 760 969 824 l 947 485 l 1103 485 q 1139 461 1126 485 m 779 503 q 775 647 783 610 q 751 675 769 674 q 718 686 726 678 q 606 569 676 656 q 507 449 556 508 l 779 503 m 872 1032 l 896 1050 q 888 1083 900 1071 q 829 1107 857 1111 q 732 1063 794 1090 q 664 1036 707 1051 q 603 993 639 1021 q 581 958 594 985 q 569 928 567 932 q 574 911 572 919 q 599 899 579 899 q 661 913 617 897 q 717 936 701 926 q 771 985 732 946 q 872 1032 788 1001 m 857 1097 l 828 1104 q 808 1078 818 1100 q 828 1017 807 1036 q 924 971 863 1001 q 1001 921 949 958 q 1072 901 1029 913 q 1114 908 1085 901 q 1145 918 1143 914 q 1151 928 1147 922 q 1156 940 1156 933 q 1149 960 1156 949 q 1099 1000 1139 976 q 1043 1026 1065 1019 q 958 1051 1013 1033 q 857 1097 938 1061 z "},"ä":{"ha":1135,"x_min":-50,"x_max":1121,"o":"m 1096 406 q 1047 301 1081 325 q 946 282 1019 282 q 876 289 900 282 q 849 108 863 199 q 739 -56 811 -56 q 682 50 682 -56 q 699 194 682 107 q 715 276 715 281 q 685 273 713 279 q 651 267 657 267 q 514 247 632 267 q 303 204 375 225 q 237 118 281 174 q 150 4 193 63 q 40 -56 101 -56 q -50 29 -50 -56 q 300 421 -50 100 q 715 786 508 604 q 850 828 760 828 q 921 786 907 828 q 926 706 926 769 l 904 429 l 1060 429 q 1096 406 1083 431 m 736 447 q 732 592 740 556 q 708 619 726 618 q 675 631 683 622 q 563 515 633 600 q 464 393 513 454 l 736 447 m 713 908 q 687 863 718 883 q 639 842 656 842 q 592 861 619 842 q 563 890 564 881 l 565 940 q 587 971 567 956 q 632 986 607 986 q 656 981 644 986 l 688 954 l 713 908 m 1115 883 q 1090 838 1121 858 q 1042 817 1058 817 q 994 836 1022 817 q 965 865 967 856 l 968 915 q 990 946 969 931 q 1035 961 1010 961 q 1058 956 1047 961 l 1090 929 l 1115 883 z "},"ç":{"ha":1068,"x_min":-4,"x_max":1156,"o":"m 236 -35 q 311 -24 285 -24 q 336 -35 338 -24 q 272 -92 333 -61 q 193 -94 246 -106 q 179 -71 188 -71 q 166 -90 172 -71 q 160 -119 160 -110 q 197 -162 160 -146 q 261 -176 229 -176 q 350 -158 304 -176 q 400 -108 364 -153 q 435 -62 435 -68 q 408 -1 435 -57 q 218 1 222 10 q 236 -35 214 -6 m 1156 267 q 1071 213 1156 249 q 308 6 586 6 q -4 243 -4 6 q 167 529 -4 367 q 515 781 311 667 q 794 889 708 889 q 857 811 857 889 q 853 767 857 778 q 818 725 847 751 q 625 632 811 718 q 328 458 432 540 q 172 213 172 336 q 249 125 172 151 q 353 110 294 110 q 574 136 447 110 q 721 178 675 158 q 958 293 799 218 q 1069 336 1065 336 q 1122 311 1088 336 q 1156 267 1156 286 z "},"è":{"ha":821,"x_min":-4,"x_max":897,"o":"m 879 503 q 507 439 743 468 q 267 386 322 417 q 190 228 182 343 q 215 224 197 224 q 267 228 232 224 q 311 232 303 232 q 459 264 325 232 q 606 296 593 296 q 664 289 646 296 q 724 226 696 275 q 481 56 678 140 q 167 -25 293 -25 q 42 6 81 -25 q -4 125 -4 42 q 96 525 -4 235 q 227 832 192 800 q 446 864 263 864 q 571 851 529 864 q 682 772 632 832 l 669 726 q 563 726 667 722 q 378 713 442 731 q 279 600 279 683 l 279 563 q 529 574 346 561 q 772 586 721 586 q 855 570 813 586 q 897 531 897 554 q 879 503 897 517 m 260 1092 l 229 1096 q 214 1067 213 1083 q 240 1008 217 1025 q 340 975 276 997 q 418 947 369 960 q 488 931 453 939 q 560 921 544 921 q 600 932 572 922 q 628 944 628 942 q 633 954 629 947 q 638 967 638 961 q 629 988 638 976 q 574 1021 617 1003 q 515 1040 538 1038 q 365 1058 453 1046 q 260 1092 344 1065 z "},"é":{"ha":815,"x_min":-4,"x_max":897,"o":"m 879 503 q 507 439 743 468 q 267 386 322 417 q 190 228 182 343 q 215 224 197 224 q 267 228 232 224 q 311 232 303 232 q 459 264 325 232 q 606 296 593 296 q 664 289 646 296 q 724 226 696 275 q 481 56 678 140 q 167 -25 293 -25 q 42 6 81 -25 q -4 125 -4 42 q 96 525 -4 235 q 227 832 192 800 q 446 864 263 864 q 571 851 529 864 q 682 772 632 832 l 669 726 q 563 726 667 722 q 378 713 442 731 q 279 600 279 683 l 279 563 q 529 574 346 561 q 772 586 721 586 q 855 570 813 586 q 897 531 897 554 q 879 503 897 517 m 596 1024 l 622 1038 q 619 1071 631 1057 q 565 1104 594 1104 q 519 1094 556 1104 q 464 1078 468 1079 q 317 1035 436 1071 q 250 1004 290 1024 q 222 973 240 996 q 206 944 204 950 q 220 914 214 919 q 251 908 226 908 q 353 928 306 908 q 488 994 408 958 q 596 1024 510 1000 z "},"ê":{"ha":828,"x_min":-4,"x_max":897,"o":"m 879 503 q 507 439 743 468 q 267 386 322 417 q 190 228 182 343 q 215 224 197 224 q 267 228 232 224 q 311 232 303 232 q 459 264 325 232 q 606 296 593 296 q 664 289 646 296 q 724 226 696 275 q 481 56 678 140 q 167 -25 293 -25 q 42 6 81 -25 q -4 125 -4 42 q 96 525 -4 235 q 227 832 192 800 q 446 864 263 864 q 571 851 529 864 q 682 772 632 832 l 669 726 q 563 726 667 722 q 378 713 442 731 q 279 600 279 683 l 279 563 q 529 574 346 561 q 772 586 721 586 q 855 570 813 586 q 897 531 897 554 q 879 503 897 517 m 413 1028 l 438 1046 q 429 1079 442 1067 q 371 1103 399 1107 q 274 1058 336 1086 q 206 1032 249 1047 q 144 990 181 1017 q 122 954 136 981 q 111 924 108 928 q 115 907 113 915 q 139 894 121 894 q 200 908 158 893 q 258 932 242 922 q 313 981 274 942 q 413 1028 329 997 m 399 1093 l 369 1100 q 350 1074 360 1096 q 369 1013 349 1032 q 465 967 404 997 q 543 917 490 954 q 614 897 571 908 q 656 903 626 897 q 687 914 685 910 q 693 924 689 918 q 697 936 697 929 q 690 956 697 944 q 640 996 681 972 q 585 1022 607 1015 q 500 1047 553 1029 q 399 1093 479 1057 z "},"ò":{"ha":765,"x_min":-4,"x_max":775,"o":"m 775 494 q 649 158 775 318 q 314 -18 508 -18 q 78 71 163 -18 q -4 296 -4 156 q 36 485 -4 351 q 153 753 86 647 q 338 889 240 889 q 643 793 525 889 q 775 494 775 686 m 529 439 q 540 492 529 438 q 550 588 550 546 q 383 743 550 757 q 215 542 294 736 q 149 294 149 379 q 165 204 149 244 q 272 126 194 126 q 463 260 379 126 q 529 439 529 368 m 236 1103 l 207 1107 q 190 1076 189 1094 q 218 1019 194 1036 q 318 986 254 1008 q 397 957 347 969 q 464 942 431 950 q 538 932 522 932 q 578 943 550 933 q 607 957 606 953 q 611 964 607 957 q 615 978 615 971 q 604 1001 615 988 q 551 1032 593 1014 q 493 1051 515 1047 q 343 1069 429 1057 q 236 1103 321 1076 z "},"ó":{"ha":765,"x_min":-4,"x_max":775,"o":"m 775 494 q 649 158 775 318 q 314 -18 508 -18 q 78 71 163 -18 q -4 296 -4 156 q 36 485 -4 351 q 153 753 86 647 q 338 889 240 889 q 643 793 525 889 q 775 494 775 686 m 529 439 q 540 492 529 438 q 550 588 550 546 q 383 743 550 757 q 215 542 294 736 q 149 294 149 379 q 165 204 149 244 q 272 126 194 126 q 463 260 379 126 q 529 439 529 368 m 604 1031 l 631 1043 q 628 1076 639 1063 q 575 1110 603 1110 q 528 1100 564 1111 q 472 1083 476 1085 q 325 1040 444 1076 q 258 1010 299 1031 q 231 979 249 1003 q 214 951 213 956 q 230 920 224 926 q 260 914 236 914 q 361 933 314 914 q 496 1000 417 964 q 604 1031 518 1006 z "},"ô":{"ha":765,"x_min":-4,"x_max":775,"o":"m 775 494 q 649 158 775 318 q 314 -18 508 -18 q 78 71 163 -18 q -4 296 -4 156 q 36 485 -4 351 q 153 753 86 647 q 338 889 240 889 q 643 793 525 889 q 775 494 775 686 m 529 439 q 540 492 529 438 q 550 588 550 546 q 383 743 550 757 q 215 542 294 736 q 149 294 149 379 q 165 204 149 244 q 272 126 194 126 q 463 260 379 126 q 529 439 529 368 m 433 1051 l 458 1069 q 450 1101 463 1090 q 390 1126 419 1131 q 294 1082 357 1110 q 225 1056 269 1071 q 165 1013 201 1040 q 143 978 157 1004 q 132 947 129 951 q 136 931 133 939 q 160 918 142 918 q 221 931 179 917 q 278 955 263 944 q 333 1004 294 965 q 433 1051 349 1019 m 419 1117 l 390 1124 q 371 1096 381 1119 q 390 1036 368 1056 q 486 990 424 1019 q 564 940 511 978 q 635 921 590 931 q 676 927 647 921 q 708 938 706 933 q 713 947 710 942 q 717 960 717 953 q 711 979 717 968 q 661 1019 700 996 q 606 1046 626 1039 q 521 1069 574 1053 q 419 1117 500 1079 z "},"ö":{"ha":589,"x_min":4,"x_max":610,"o":"m 610 403 q 518 136 610 260 q 260 -3 414 -3 q 71 67 138 -3 q 4 249 4 136 q 38 410 4 294 q 131 644 76 553 q 278 764 200 764 q 515 663 419 764 q 610 403 610 561 m 417 367 q 329 638 417 638 q 201 468 258 638 q 156 254 156 331 q 169 193 156 221 q 257 142 196 142 q 386 236 343 142 q 417 367 417 300 m 257 971 q 228 922 263 944 q 182 903 200 903 q 135 922 163 903 q 106 951 107 942 l 108 1001 q 131 1032 110 1017 q 175 1047 151 1047 q 199 1042 188 1047 l 232 1015 l 257 971 m 492 971 q 466 925 497 946 q 418 904 435 904 q 371 924 399 904 q 342 953 343 943 l 344 1003 q 366 1033 346 1018 q 411 1049 386 1049 q 435 1043 424 1049 l 467 1017 l 492 971 z "},"ù":{"ha":628,"x_min":0,"x_max":701,"o":"m 701 786 q 635 535 701 714 q 450 181 554 321 q 175 1 315 1 q 35 154 86 1 q 0 335 0 258 q 19 540 0 346 q 49 854 42 756 q 71 861 51 854 q 106 868 90 868 q 203 783 169 868 q 228 633 228 718 q 175 440 228 618 q 122 247 122 263 q 149 193 122 213 q 199 176 169 176 q 451 529 313 176 q 575 890 514 710 l 640 890 q 701 786 701 829 m 236 1103 l 207 1107 q 190 1076 189 1094 q 218 1019 194 1036 q 318 986 254 1008 q 397 957 347 969 q 464 942 431 950 q 538 932 522 932 q 578 943 550 933 q 607 957 606 953 q 611 964 607 957 q 615 978 615 971 q 604 1001 615 988 q 551 1032 593 1014 q 493 1051 515 1047 q 343 1069 429 1057 q 236 1103 321 1076 z "},"ú":{"ha":628,"x_min":0,"x_max":701,"o":"m 701 786 q 635 535 701 714 q 450 181 554 321 q 175 1 315 1 q 35 154 86 1 q 0 335 0 258 q 19 540 0 346 q 49 854 42 756 q 71 861 51 854 q 106 868 90 868 q 211 804 171 868 q 246 676 246 749 q 193 483 246 661 q 140 290 140 306 q 154 218 140 250 q 192 186 168 186 q 447 533 307 186 q 575 890 511 713 l 640 890 q 701 786 701 829 m 604 1031 l 631 1043 q 628 1076 639 1063 q 575 1110 603 1110 q 528 1100 564 1111 q 472 1083 476 1085 q 325 1040 444 1076 q 258 1010 299 1031 q 231 979 249 1003 q 214 951 213 956 q 230 920 224 926 q 260 914 236 914 q 361 933 314 914 q 496 1000 417 964 q 604 1031 518 1006 z "},"û":{"ha":628,"x_min":0,"x_max":717,"o":"m 701 786 q 635 535 701 714 q 450 181 554 321 q 175 1 315 1 q 35 154 86 1 q 0 335 0 258 q 19 540 0 346 q 49 854 42 756 q 71 861 51 854 q 106 868 90 868 q 200 782 168 868 q 222 631 222 718 q 176 438 222 615 q 131 244 131 260 q 140 199 131 211 q 178 186 149 186 q 440 533 293 186 q 575 890 508 713 l 640 890 q 701 786 701 829 m 433 1051 l 458 1069 q 450 1101 463 1090 q 390 1126 419 1131 q 294 1082 357 1110 q 225 1056 269 1071 q 165 1013 201 1040 q 143 978 157 1004 q 132 947 129 951 q 136 931 133 939 q 160 918 142 918 q 221 931 179 917 q 278 955 263 944 q 333 1004 294 965 q 433 1051 349 1019 m 419 1117 l 390 1124 q 371 1096 381 1119 q 390 1036 368 1056 q 486 990 424 1019 q 564 940 511 978 q 635 921 590 931 q 676 927 647 921 q 708 938 706 933 q 713 947 710 942 q 717 960 717 953 q 711 979 717 968 q 661 1019 700 996 q 606 1046 626 1039 q 521 1069 574 1053 q 419 1117 500 1079 z "},"ü":{"ha":832,"x_min":0,"x_max":847,"o":"m 407 1017 q 383 972 411 994 q 333 949 356 949 q 285 968 314 949 q 257 997 257 988 l 258 1047 q 281 1078 261 1063 q 325 1093 301 1093 q 350 1088 339 1093 l 382 1061 l 407 1017 m 628 1026 q 602 985 632 1011 q 554 960 572 960 q 507 979 535 960 q 478 1008 479 999 l 481 1058 q 502 1089 482 1074 q 547 1104 522 1104 q 571 1099 560 1104 l 603 1072 l 628 1026 m 847 750 q 765 493 847 671 q 544 150 669 286 q 224 -21 386 -21 q 47 169 111 -21 q 4 396 0 308 q 13 608 8 503 q 32 835 19 728 q 59 843 35 835 q 103 851 83 851 q 194 699 194 851 q 193 639 194 679 q 192 582 192 599 q 181 455 192 571 q 171 313 171 339 q 188 208 171 258 q 236 153 207 151 q 481 294 388 158 q 601 589 546 389 q 690 881 671 835 l 771 881 q 847 750 847 803 z "},"Ś":{"ha":1389,"x_min":0,"x_max":0,"o":""},"ƍ":{"ha":357,"x_min":0,"x_max":0,"o":""},"Ə":{"ha":540,"x_min":13,"x_max":526,"o":"m 17 1043 q 53 1075 35 1058 q 133 1099 88 1099 q 182 1093 157 1099 q 285 1053 243 1079 q 333 1031 319 1031 q 422 1064 379 1031 q 465 1078 440 1078 q 490 1068 482 1078 q 526 1014 526 1024 q 518 1001 526 1006 q 450 971 494 988 q 367 949 394 949 q 354 950 360 949 q 163 1029 269 989 q 128 1006 154 1029 q 79 979 103 983 q 32 997 54 975 q 13 1033 13 1015 q 17 1043 13 1040 z "},"ʁ":{"ha":575,"x_min":31,"x_max":567,"o":"m 88 371 l 54 385 q 39 364 32 385 q 66 320 44 347 q 103 288 88 293 q 166 309 113 283 q 239 332 219 335 q 393 257 274 328 q 442 263 408 257 q 508 298 457 267 q 560 335 560 329 q 563 345 560 336 q 567 361 567 354 q 533 393 567 393 q 478 374 515 393 q 429 356 440 356 q 326 381 414 354 q 226 410 239 408 q 88 371 199 413 m 86 526 l 53 540 q 38 519 31 540 q 65 476 43 503 q 101 443 86 449 q 165 465 111 439 q 238 488 218 490 q 392 413 272 483 q 440 418 407 413 q 507 453 456 422 q 558 490 558 485 q 562 501 558 492 q 565 517 565 510 q 532 549 565 549 q 476 530 514 549 q 428 511 439 511 q 325 537 413 510 q 225 565 238 564 q 86 526 197 568 z "},"ʂ":{"ha":575,"x_min":13,"x_max":564,"o":"m 68 578 l 31 574 q 18 543 18 560 q 35 502 18 526 q 68 471 53 478 q 200 458 115 467 q 390 446 235 454 q 482 454 426 447 q 528 478 497 458 q 560 504 560 499 q 562 513 560 506 q 564 525 564 519 q 546 555 564 540 q 471 581 528 569 q 394 588 422 589 q 301 575 386 588 q 207 567 225 565 q 68 578 179 569 m 63 404 l 25 400 q 13 369 13 386 q 72 310 13 333 q 194 285 111 294 q 382 281 232 281 q 476 281 458 275 q 513 304 490 285 q 535 331 535 324 q 538 341 535 332 q 542 357 542 350 q 511 392 542 381 q 386 393 490 399 q 201 406 356 392 q 63 404 174 408 m 447 569 q 478 603 451 578 q 497 626 501 624 q 486 643 492 635 q 451 650 475 654 q 382 610 428 646 q 326 557 344 579 q 219 401 283 489 q 119 304 199 382 l 99 272 q 129 236 126 236 q 146 250 136 236 q 163 268 156 264 q 260 360 197 301 l 447 569 z "},"ˏ":{"ha":996,"x_min":13,"x_max":994,"o":"m 994 615 q 785 263 994 394 q 426 157 614 157 q 188 206 314 157 q 13 396 13 275 q 25 464 13 388 q 25 529 29 482 q 29 599 21 574 q 197 833 51 681 q 306 933 274 914 q 393 968 321 943 q 469 979 424 979 q 500 982 474 979 q 533 985 526 985 q 835 897 700 985 q 994 615 994 792 m 836 621 q 744 819 836 729 q 536 910 653 910 q 478 899 528 910 q 403 882 419 885 q 256 742 329 813 q 151 581 160 649 q 150 460 153 533 q 160 425 149 450 q 172 396 172 400 q 275 271 172 321 q 421 231 357 231 q 694 338 567 231 q 836 621 836 454 m 251 453 q 288 375 246 428 q 406 319 338 311 q 643 424 608 346 q 651 457 651 443 q 629 478 651 478 q 602 472 618 478 q 511 417 586 467 q 429 371 443 369 q 353 417 413 372 q 286 472 300 457 q 275 478 282 478 q 251 453 257 478 m 392 731 q 379 733 386 733 q 346 711 351 733 q 338 697 344 706 q 332 685 332 688 q 344 675 332 679 q 371 664 351 672 q 393 656 385 656 q 417 683 417 656 q 392 731 417 717 m 576 742 q 564 744 571 744 q 531 722 536 744 q 523 708 529 717 q 517 696 517 699 q 529 686 517 690 q 556 675 536 683 q 578 667 569 667 q 601 694 601 667 q 576 742 601 728 z "}}}
